STARTFONT 2.1
COMMENT
COMMENT Converted from OpenType font "EncodeSans-VariableFont_wdth,wght.ttf" by "otf2bdf 3.0".
COMMENT
FONT -FreeType-Encode Sans Condensed Thin-Medium-R-Normal--17-170-72-72-P-68-ISO10646-1
SIZE 17 72 72
FONTBOUNDINGBOX 21 22 -3 -4
STARTPROPERTIES 19
FOUNDRY "FreeType"
FAMILY_NAME "Encode Sans Condensed Thin"
WEIGHT_NAME "Medium"
SLANT "R"
SETWIDTH_NAME "Normal"
ADD_STYLE_NAME ""
PIXEL_SIZE 17
POINT_SIZE 170
RESOLUTION_X 72
RESOLUTION_Y 72
SPACING "P"
AVERAGE_WIDTH 68
CHARSET_REGISTRY "ISO10646"
CHARSET_ENCODING "1"
FONT_ASCENT 17
FONT_DESCENT 3
COPYRIGHT "Copyright 2020 The Encode Project Authors (https://github.com/thundernixon/Encode-Sans), with Reserved Font Name 'Encode Sans'."
_OTF_FONTFILE "EncodeSans-VariableFont_wdth,wght.ttf"
_OTF_PSNAME "EncodeSans-CondensedThin"
ENDPROPERTIES
CHARS 687
STARTCHAR 0000
ENCODING 0
SWIDTH 0 0
DWIDTH 0 0
BBX 0 0 0 0
BITMAP
ENDCHAR
STARTCHAR 000D
ENCODING 13
SWIDTH 235 0
DWIDTH 4 0
BBX 0 0 0 0
BITMAP
ENDCHAR
STARTCHAR 0020
ENCODING 32
SWIDTH 235 0
DWIDTH 4 0
BBX 0 0 0 0
BITMAP
ENDCHAR
STARTCHAR 0021
ENCODING 33
SWIDTH 176 0
DWIDTH 3 0
BBX 1 13 1 0
BITMAP
80
80
80
80
80
80
80
80
80
80
00
00
80
ENDCHAR
STARTCHAR 0022
ENCODING 34
SWIDTH 294 0
DWIDTH 5 0
BBX 3 6 1 8
BITMAP
A0
A0
A0
A0
A0
A0
ENDCHAR
STARTCHAR 0023
ENCODING 35
SWIDTH 529 0
DWIDTH 9 0
BBX 7 13 1 0
BITMAP
24
24
28
28
FE
28
48
48
FE
48
48
48
48
ENDCHAR
STARTCHAR 0024
ENCODING 36
SWIDTH 411 0
DWIDTH 7 0
BBX 6 17 1 -2
BITMAP
20
20
78
80
80
80
80
80
70
08
04
04
04
04
D8
20
20
ENDCHAR
STARTCHAR 0025
ENCODING 37
SWIDTH 764 0
DWIDTH 13 0
BBX 11 13 1 0
BITMAP
6100
9100
8900
8A00
8A00
8AC0
9520
7520
0A20
0A20
0A20
1120
11E0
ENDCHAR
STARTCHAR 0026
ENCODING 38
SWIDTH 647 0
DWIDTH 11 0
BBX 10 13 1 0
BITMAP
1E00
2000
4000
4000
4000
2000
2000
5100
8900
8500
8300
4300
3CC0
ENDCHAR
STARTCHAR 0027
ENCODING 39
SWIDTH 176 0
DWIDTH 3 0
BBX 1 6 1 8
BITMAP
80
80
80
80
80
80
ENDCHAR
STARTCHAR 0028
ENCODING 40
SWIDTH 294 0
DWIDTH 5 0
BBX 3 18 1 -4
BITMAP
20
20
40
40
80
80
80
80
80
80
80
80
80
80
40
40
20
20
ENDCHAR
STARTCHAR 0029
ENCODING 41
SWIDTH 294 0
DWIDTH 5 0
BBX 4 18 0 -4
BITMAP
80
40
20
20
20
20
10
10
10
10
10
10
20
20
20
20
40
80
ENDCHAR
STARTCHAR 002A
ENCODING 42
SWIDTH 411 0
DWIDTH 7 0
BBX 7 6 0 8
BITMAP
10
10
D6
38
28
6C
ENDCHAR
STARTCHAR 002B
ENCODING 43
SWIDTH 529 0
DWIDTH 9 0
BBX 6 7 1 3
BITMAP
10
10
10
FC
10
10
10
ENDCHAR
STARTCHAR 002C
ENCODING 44
SWIDTH 176 0
DWIDTH 3 0
BBX 1 4 1 -3
BITMAP
80
80
80
80
ENDCHAR
STARTCHAR 002D
ENCODING 45
SWIDTH 352 0
DWIDTH 6 0
BBX 4 1 1 4
BITMAP
F0
ENDCHAR
STARTCHAR 002E
ENCODING 46
SWIDTH 176 0
DWIDTH 3 0
BBX 1 1 1 0
BITMAP
80
ENDCHAR
STARTCHAR 002F
ENCODING 47
SWIDTH 235 0
DWIDTH 4 0
BBX 4 16 0 -2
BITMAP
10
10
20
20
20
20
20
40
40
40
40
40
80
80
80
80
ENDCHAR
STARTCHAR 0030
ENCODING 48
SWIDTH 529 0
DWIDTH 9 0
BBX 7 13 1 0
BITMAP
38
44
82
82
82
82
82
82
82
82
82
44
38
ENDCHAR
STARTCHAR 0031
ENCODING 49
SWIDTH 294 0
DWIDTH 5 0
BBX 3 13 0 0
BITMAP
20
60
A0
20
20
20
20
20
20
20
20
20
20
ENDCHAR
STARTCHAR 0032
ENCODING 50
SWIDTH 411 0
DWIDTH 7 0
BBX 6 13 0 0
BITMAP
F0
08
04
04
04
08
08
10
10
20
20
40
FC
ENDCHAR
STARTCHAR 0033
ENCODING 51
SWIDTH 411 0
DWIDTH 7 0
BBX 7 13 0 0
BITMAP
78
04
04
04
04
04
38
04
02
02
02
04
F8
ENDCHAR
STARTCHAR 0034
ENCODING 52
SWIDTH 470 0
DWIDTH 8 0
BBX 8 13 0 0
BITMAP
04
08
08
10
10
22
22
42
42
FF
02
02
02
ENDCHAR
STARTCHAR 0035
ENCODING 53
SWIDTH 411 0
DWIDTH 7 0
BBX 6 13 1 0
BITMAP
F8
80
80
80
80
80
70
08
04
04
04
04
F8
ENDCHAR
STARTCHAR 0036
ENCODING 54
SWIDTH 470 0
DWIDTH 8 0
BBX 7 13 1 0
BITMAP
3C
40
40
80
80
80
F8
84
82
82
82
44
3C
ENDCHAR
STARTCHAR 0037
ENCODING 55
SWIDTH 411 0
DWIDTH 7 0
BBX 6 13 0 0
BITMAP
FC
04
04
08
08
08
10
10
10
20
20
20
40
ENDCHAR
STARTCHAR 0038
ENCODING 56
SWIDTH 529 0
DWIDTH 9 0
BBX 7 13 1 0
BITMAP
38
44
82
82
82
44
38
C4
82
82
82
82
7C
ENDCHAR
STARTCHAR 0039
ENCODING 57
SWIDTH 470 0
DWIDTH 8 0
BBX 7 13 0 0
BITMAP
38
44
82
82
82
42
3E
02
02
02
04
04
78
ENDCHAR
STARTCHAR 003A
ENCODING 58
SWIDTH 176 0
DWIDTH 3 0
BBX 1 9 1 0
BITMAP
80
00
00
00
00
00
00
00
80
ENDCHAR
STARTCHAR 003B
ENCODING 59
SWIDTH 176 0
DWIDTH 3 0
BBX 1 12 1 -3
BITMAP
80
00
00
00
00
00
00
00
80
80
80
80
ENDCHAR
STARTCHAR 003C
ENCODING 60
SWIDTH 529 0
DWIDTH 9 0
BBX 6 6 1 3
BITMAP
0C
30
C0
70
08
04
ENDCHAR
STARTCHAR 003D
ENCODING 61
SWIDTH 529 0
DWIDTH 9 0
BBX 6 3 1 5
BITMAP
FC
00
FC
ENDCHAR
STARTCHAR 003E
ENCODING 62
SWIDTH 529 0
DWIDTH 9 0
BBX 6 6 1 3
BITMAP
E0
18
04
18
60
80
ENDCHAR
STARTCHAR 003F
ENCODING 63
SWIDTH 352 0
DWIDTH 6 0
BBX 6 13 0 0
BITMAP
F8
04
04
04
04
08
10
20
20
20
00
00
20
ENDCHAR
STARTCHAR 0040
ENCODING 64
SWIDTH 764 0
DWIDTH 13 0
BBX 11 17 1 -4
BITMAP
1F00
2080
4040
8420
9B20
8120
8120
8120
8F20
9120
9120
9120
9EC0
8000
4000
2000
1F80
ENDCHAR
STARTCHAR 0041
ENCODING 65
SWIDTH 588 0
DWIDTH 10 0
BBX 9 13 0 0
BITMAP
0800
0C00
0C00
1400
1200
1200
2200
2100
3F00
4100
4080
4080
8080
ENDCHAR
STARTCHAR 0042
ENCODING 66
SWIDTH 529 0
DWIDTH 9 0
BBX 8 13 1 0
BITMAP
7C
82
82
82
82
82
FC
82
81
81
81
82
FC
ENDCHAR
STARTCHAR 0043
ENCODING 67
SWIDTH 470 0
DWIDTH 8 0
BBX 7 13 1 0
BITMAP
3E
40
80
80
80
80
80
80
80
80
80
40
3E
ENDCHAR
STARTCHAR 0044
ENCODING 68
SWIDTH 588 0
DWIDTH 10 0
BBX 8 13 1 0
BITMAP
78
84
82
81
81
81
81
81
81
81
82
82
FC
ENDCHAR
STARTCHAR 0045
ENCODING 69
SWIDTH 470 0
DWIDTH 8 0
BBX 7 13 1 0
BITMAP
FE
80
80
80
80
80
FC
80
80
80
80
80
FE
ENDCHAR
STARTCHAR 0046
ENCODING 70
SWIDTH 470 0
DWIDTH 8 0
BBX 7 13 1 0
BITMAP
FE
80
80
80
80
80
FC
80
80
80
80
80
80
ENDCHAR
STARTCHAR 0047
ENCODING 71
SWIDTH 529 0
DWIDTH 9 0
BBX 7 13 1 0
BITMAP
1E
60
80
80
80
80
80
82
82
82
82
42
3E
ENDCHAR
STARTCHAR 0048
ENCODING 72
SWIDTH 588 0
DWIDTH 10 0
BBX 8 13 1 0
BITMAP
81
81
81
81
81
81
FF
81
81
81
81
81
81
ENDCHAR
STARTCHAR 0049
ENCODING 73
SWIDTH 176 0
DWIDTH 3 0
BBX 1 13 1 0
BITMAP
80
80
80
80
80
80
80
80
80
80
80
80
80
ENDCHAR
STARTCHAR 004A
ENCODING 74
SWIDTH 176 0
DWIDTH 3 0
BBX 2 16 0 -3
BITMAP
40
40
40
40
40
40
40
40
40
40
40
40
40
40
80
80
ENDCHAR
STARTCHAR 004B
ENCODING 75
SWIDTH 529 0
DWIDTH 9 0
BBX 8 13 1 0
BITMAP
81
82
84
84
88
90
E0
90
88
84
84
82
81
ENDCHAR
STARTCHAR 004C
ENCODING 76
SWIDTH 470 0
DWIDTH 8 0
BBX 7 13 1 0
BITMAP
80
80
80
80
80
80
80
80
80
80
80
80
FE
ENDCHAR
STARTCHAR 004D
ENCODING 77
SWIDTH 764 0
DWIDTH 13 0
BBX 10 13 1 0
BITMAP
8040
C040
C040
A0C0
A0C0
A140
9140
9140
8A40
8A40
8440
8040
8040
ENDCHAR
STARTCHAR 004E
ENCODING 78
SWIDTH 647 0
DWIDTH 11 0
BBX 8 13 1 0
BITMAP
81
C1
C1
A1
91
91
89
89
85
85
83
81
81
ENDCHAR
STARTCHAR 004F
ENCODING 79
SWIDTH 588 0
DWIDTH 10 0
BBX 8 13 1 0
BITMAP
3C
42
81
81
81
81
81
81
81
81
81
42
3C
ENDCHAR
STARTCHAR 0050
ENCODING 80
SWIDTH 529 0
DWIDTH 9 0
BBX 7 13 1 0
BITMAP
F8
84
82
82
82
82
82
84
F8
80
80
80
80
ENDCHAR
STARTCHAR 0051
ENCODING 81
SWIDTH 588 0
DWIDTH 10 0
BBX 8 15 1 -2
BITMAP
3C
42
81
81
81
81
81
81
81
81
81
42
24
1C
03
ENDCHAR
STARTCHAR 0052
ENCODING 82
SWIDTH 588 0
DWIDTH 10 0
BBX 8 13 1 0
BITMAP
78
86
82
82
82
82
8C
F0
88
84
82
82
81
ENDCHAR
STARTCHAR 0053
ENCODING 83
SWIDTH 411 0
DWIDTH 7 0
BBX 6 13 1 0
BITMAP
78
80
80
80
80
80
70
08
04
04
04
04
F8
ENDCHAR
STARTCHAR 0054
ENCODING 84
SWIDTH 470 0
DWIDTH 8 0
BBX 8 13 0 0
BITMAP
FF
08
08
08
08
08
08
08
08
08
08
08
08
ENDCHAR
STARTCHAR 0055
ENCODING 85
SWIDTH 588 0
DWIDTH 10 0
BBX 8 13 1 0
BITMAP
81
81
81
81
81
81
81
81
81
81
81
41
3E
ENDCHAR
STARTCHAR 0056
ENCODING 86
SWIDTH 529 0
DWIDTH 9 0
BBX 9 13 0 0
BITMAP
8080
8080
4080
4100
4100
2100
2200
2200
1200
1400
1400
0C00
0800
ENDCHAR
STARTCHAR 0057
ENCODING 87
SWIDTH 882 0
DWIDTH 15 0
BBX 15 13 0 0
BITMAP
8102
4102
4284
4284
4284
2284
2448
2448
2448
1450
1830
1830
0830
ENDCHAR
STARTCHAR 0058
ENCODING 88
SWIDTH 529 0
DWIDTH 9 0
BBX 9 13 0 0
BITMAP
8080
4100
4100
2200
1400
1400
0800
0800
1400
2200
2200
4100
8080
ENDCHAR
STARTCHAR 0059
ENCODING 89
SWIDTH 470 0
DWIDTH 8 0
BBX 8 13 0 0
BITMAP
81
81
42
42
24
14
18
08
08
08
08
08
08
ENDCHAR
STARTCHAR 005A
ENCODING 90
SWIDTH 470 0
DWIDTH 8 0
BBX 8 13 0 0
BITMAP
7F
02
02
04
04
08
08
10
10
20
40
40
FF
ENDCHAR
STARTCHAR 005B
ENCODING 91
SWIDTH 294 0
DWIDTH 5 0
BBX 3 18 2 -4
BITMAP
E0
80
80
80
80
80
80
80
80
80
80
80
80
80
80
80
80
E0
ENDCHAR
STARTCHAR 005C
ENCODING 92
SWIDTH 235 0
DWIDTH 4 0
BBX 4 16 0 -2
BITMAP
80
80
80
80
40
40
40
40
40
20
20
20
20
20
20
10
ENDCHAR
STARTCHAR 005D
ENCODING 93
SWIDTH 294 0
DWIDTH 5 0
BBX 3 18 0 -4
BITMAP
E0
20
20
20
20
20
20
20
20
20
20
20
20
20
20
20
20
E0
ENDCHAR
STARTCHAR 005E
ENCODING 94
SWIDTH 529 0
DWIDTH 9 0
BBX 7 7 1 6
BITMAP
10
30
28
48
44
84
82
ENDCHAR
STARTCHAR 005F
ENCODING 95
SWIDTH 470 0
DWIDTH 8 0
BBX 6 1 1 -1
BITMAP
FC
ENDCHAR
STARTCHAR 0060
ENCODING 96
SWIDTH 411 0
DWIDTH 7 0
BBX 2 3 3 11
BITMAP
80
40
40
ENDCHAR
STARTCHAR 0061
ENCODING 97
SWIDTH 411 0
DWIDTH 7 0
BBX 5 9 1 0
BITMAP
F8
08
08
08
78
88
88
88
F8
ENDCHAR
STARTCHAR 0062
ENCODING 98
SWIDTH 470 0
DWIDTH 8 0
BBX 6 14 1 0
BITMAP
80
80
80
80
80
F8
84
84
84
84
84
84
88
F0
ENDCHAR
STARTCHAR 0063
ENCODING 99
SWIDTH 352 0
DWIDTH 6 0
BBX 5 9 1 0
BITMAP
78
80
80
80
80
80
80
80
78
ENDCHAR
STARTCHAR 0064
ENCODING 100
SWIDTH 470 0
DWIDTH 8 0
BBX 6 14 1 0
BITMAP
04
04
04
04
14
6C
84
84
84
84
84
84
84
7C
ENDCHAR
STARTCHAR 0065
ENCODING 101
SWIDTH 411 0
DWIDTH 7 0
BBX 6 9 1 0
BITMAP
78
88
84
84
FC
80
80
80
78
ENDCHAR
STARTCHAR 0066
ENCODING 102
SWIDTH 294 0
DWIDTH 5 0
BBX 5 14 0 0
BITMAP
18
20
20
20
20
F8
20
20
20
20
20
20
20
20
ENDCHAR
STARTCHAR 0067
ENCODING 103
SWIDTH 470 0
DWIDTH 8 0
BBX 6 13 1 -4
BITMAP
7C
84
84
84
84
84
84
84
7C
04
04
08
F0
ENDCHAR
STARTCHAR 0068
ENCODING 104
SWIDTH 470 0
DWIDTH 8 0
BBX 6 14 1 0
BITMAP
80
80
80
80
90
E8
84
84
84
84
84
84
84
84
ENDCHAR
STARTCHAR 0069
ENCODING 105
SWIDTH 176 0
DWIDTH 3 0
BBX 1 13 1 0
BITMAP
80
00
00
00
80
80
80
80
80
80
80
80
80
ENDCHAR
STARTCHAR 006A
ENCODING 106
SWIDTH 176 0
DWIDTH 3 0
BBX 2 17 0 -4
BITMAP
40
00
00
00
40
40
40
40
40
40
40
40
40
40
40
80
80
ENDCHAR
STARTCHAR 006B
ENCODING 107
SWIDTH 411 0
DWIDTH 7 0
BBX 6 14 1 0
BITMAP
80
80
80
80
80
84
88
90
A0
E0
90
88
88
84
ENDCHAR
STARTCHAR 006C
ENCODING 108
SWIDTH 176 0
DWIDTH 3 0
BBX 1 14 1 0
BITMAP
80
80
80
80
80
80
80
80
80
80
80
80
80
80
ENDCHAR
STARTCHAR 006D
ENCODING 109
SWIDTH 705 0
DWIDTH 12 0
BBX 10 9 1 0
BITMAP
FBC0
8440
8440
8440
8440
8440
8440
8440
8440
ENDCHAR
STARTCHAR 006E
ENCODING 110
SWIDTH 470 0
DWIDTH 8 0
BBX 6 9 1 0
BITMAP
F8
84
84
84
84
84
84
84
84
ENDCHAR
STARTCHAR 006F
ENCODING 111
SWIDTH 470 0
DWIDTH 8 0
BBX 6 9 1 0
BITMAP
78
84
84
84
84
84
84
84
78
ENDCHAR
STARTCHAR 0070
ENCODING 112
SWIDTH 470 0
DWIDTH 8 0
BBX 6 13 1 -4
BITMAP
F8
84
84
84
84
84
84
88
F0
80
80
80
80
ENDCHAR
STARTCHAR 0071
ENCODING 113
SWIDTH 470 0
DWIDTH 8 0
BBX 6 13 1 -4
BITMAP
7C
84
84
84
84
84
84
84
7C
04
04
04
04
ENDCHAR
STARTCHAR 0072
ENCODING 114
SWIDTH 294 0
DWIDTH 5 0
BBX 4 9 1 0
BITMAP
F0
80
80
80
80
80
80
80
80
ENDCHAR
STARTCHAR 0073
ENCODING 115
SWIDTH 352 0
DWIDTH 6 0
BBX 5 9 1 0
BITMAP
F0
80
80
80
70
08
08
08
F0
ENDCHAR
STARTCHAR 0074
ENCODING 116
SWIDTH 294 0
DWIDTH 5 0
BBX 5 13 0 0
BITMAP
20
20
40
40
F8
40
40
40
40
40
40
20
38
ENDCHAR
STARTCHAR 0075
ENCODING 117
SWIDTH 470 0
DWIDTH 8 0
BBX 6 9 1 0
BITMAP
84
84
84
84
84
84
84
84
7C
ENDCHAR
STARTCHAR 0076
ENCODING 118
SWIDTH 411 0
DWIDTH 7 0
BBX 7 9 0 0
BITMAP
82
82
44
44
24
28
28
18
10
ENDCHAR
STARTCHAR 0077
ENCODING 119
SWIDTH 705 0
DWIDTH 12 0
BBX 12 9 0 0
BITMAP
8210
4610
4520
4920
4920
2920
28C0
30C0
1080
ENDCHAR
STARTCHAR 0078
ENCODING 120
SWIDTH 411 0
DWIDTH 7 0
BBX 7 9 0 0
BITMAP
86
44
28
30
10
28
28
44
86
ENDCHAR
STARTCHAR 0079
ENCODING 121
SWIDTH 411 0
DWIDTH 7 0
BBX 7 13 0 -4
BITMAP
82
82
44
44
24
28
28
18
10
10
10
20
20
ENDCHAR
STARTCHAR 007A
ENCODING 122
SWIDTH 352 0
DWIDTH 6 0
BBX 6 9 0 0
BITMAP
7C
08
08
10
10
20
40
40
FC
ENDCHAR
STARTCHAR 007B
ENCODING 123
SWIDTH 294 0
DWIDTH 5 0
BBX 5 18 0 -4
BITMAP
18
20
20
20
20
20
20
20
C0
40
20
20
20
20
20
20
20
18
ENDCHAR
STARTCHAR 007C
ENCODING 124
SWIDTH 176 0
DWIDTH 3 0
BBX 1 18 1 -4
BITMAP
80
80
80
80
80
80
80
80
80
80
80
80
80
80
80
80
80
80
ENDCHAR
STARTCHAR 007D
ENCODING 125
SWIDTH 294 0
DWIDTH 5 0
BBX 5 18 0 -4
BITMAP
C0
20
20
20
20
20
20
20
18
20
20
20
20
20
20
20
20
C0
ENDCHAR
STARTCHAR 007E
ENCODING 126
SWIDTH 529 0
DWIDTH 9 0
BBX 6 1 1 6
BITMAP
FC
ENDCHAR
STARTCHAR 00A0
ENCODING 160
SWIDTH 235 0
DWIDTH 4 0
BBX 0 0 0 0
BITMAP
ENDCHAR
STARTCHAR 00A1
ENCODING 161
SWIDTH 176 0
DWIDTH 3 0
BBX 1 12 1 -3
BITMAP
80
00
80
80
80
80
80
80
80
80
80
80
ENDCHAR
STARTCHAR 00A2
ENCODING 162
SWIDTH 352 0
DWIDTH 6 0
BBX 5 13 1 -2
BITMAP
20
30
48
80
80
80
80
80
80
80
58
20
20
ENDCHAR
STARTCHAR 00A3
ENCODING 163
SWIDTH 529 0
DWIDTH 9 0
BBX 7 13 1 0
BITMAP
1E
20
40
40
40
40
FC
40
40
40
40
40
FE
ENDCHAR
STARTCHAR 00A4
ENCODING 164
SWIDTH 529 0
DWIDTH 9 0
BBX 7 7 1 3
BITMAP
82
BC
44
84
84
48
B6
ENDCHAR
STARTCHAR 00A5
ENCODING 165
SWIDTH 529 0
DWIDTH 9 0
BBX 9 13 0 0
BITMAP
8080
4100
4100
2200
2400
1400
0800
3E00
0800
0800
3E00
0800
0800
ENDCHAR
STARTCHAR 00A6
ENCODING 166
SWIDTH 176 0
DWIDTH 3 0
BBX 1 18 1 -4
BITMAP
80
80
80
80
80
80
80
00
00
00
00
80
80
80
80
80
80
80
ENDCHAR
STARTCHAR 00A7
ENCODING 167
SWIDTH 411 0
DWIDTH 7 0
BBX 5 13 1 0
BITMAP
78
80
80
80
60
90
88
88
78
08
08
08
F0
ENDCHAR
STARTCHAR 00A8
ENCODING 168
SWIDTH 411 0
DWIDTH 7 0
BBX 4 1 3 12
BITMAP
90
ENDCHAR
STARTCHAR 00A9
ENCODING 169
SWIDTH 823 0
DWIDTH 14 0
BBX 12 13 1 0
BITMAP
0F80
3040
4020
8710
8810
9010
9010
9010
9010
8F90
4010
2020
1FC0
ENDCHAR
STARTCHAR 00AA
ENCODING 170
SWIDTH 352 0
DWIDTH 6 0
BBX 4 8 1 5
BITMAP
E0
10
10
10
F0
90
90
F0
ENDCHAR
STARTCHAR 00AB
ENCODING 171
SWIDTH 352 0
DWIDTH 6 0
BBX 4 7 1 1
BITMAP
50
90
A0
A0
90
50
50
ENDCHAR
STARTCHAR 00AC
ENCODING 172
SWIDTH 647 0
DWIDTH 11 0
BBX 8 5 1 2
BITMAP
FF
01
01
01
01
ENDCHAR
STARTCHAR 00AD
ENCODING 173
SWIDTH 352 0
DWIDTH 6 0
BBX 4 1 1 4
BITMAP
F0
ENDCHAR
STARTCHAR 00AE
ENCODING 174
SWIDTH 764 0
DWIDTH 13 0
BBX 11 11 1 2
BITMAP
1F00
2080
4040
9E40
9220
8E20
9220
9240
4040
2080
1F00
ENDCHAR
STARTCHAR 00AF
ENCODING 175
SWIDTH 411 0
DWIDTH 7 0
BBX 4 1 3 12
BITMAP
F0
ENDCHAR
STARTCHAR 00B0
ENCODING 176
SWIDTH 470 0
DWIDTH 8 0
BBX 6 6 1 7
BITMAP
70
88
84
84
88
70
ENDCHAR
STARTCHAR 00B1
ENCODING 177
SWIDTH 529 0
DWIDTH 9 0
BBX 6 9 1 0
BITMAP
10
10
10
FC
10
10
00
00
FC
ENDCHAR
STARTCHAR 00B2
ENCODING 178
SWIDTH 352 0
DWIDTH 6 0
BBX 4 9 1 5
BITMAP
E0
10
10
10
20
40
40
80
F0
ENDCHAR
STARTCHAR 00B3
ENCODING 179
SWIDTH 352 0
DWIDTH 6 0
BBX 4 9 1 5
BITMAP
E0
10
10
10
60
10
10
10
E0
ENDCHAR
STARTCHAR 00B4
ENCODING 180
SWIDTH 411 0
DWIDTH 7 0
BBX 2 3 5 11
BITMAP
40
80
80
ENDCHAR
STARTCHAR 00B5
ENCODING 181
SWIDTH 470 0
DWIDTH 8 0
BBX 6 13 1 -4
BITMAP
84
84
84
84
84
84
84
84
FC
80
80
80
80
ENDCHAR
STARTCHAR 00B6
ENCODING 182
SWIDTH 529 0
DWIDTH 9 0
BBX 7 13 1 0
BITMAP
3A
FA
FA
FA
FA
FA
FA
7A
3A
0A
0A
0A
0A
ENDCHAR
STARTCHAR 00B7
ENCODING 183
SWIDTH 176 0
DWIDTH 3 0
BBX 1 1 1 4
BITMAP
80
ENDCHAR
STARTCHAR 00B8
ENCODING 184
SWIDTH 411 0
DWIDTH 7 0
BBX 3 3 4 -3
BITMAP
40
20
E0
ENDCHAR
STARTCHAR 00B9
ENCODING 185
SWIDTH 352 0
DWIDTH 6 0
BBX 4 9 1 5
BITMAP
20
E0
20
20
20
20
20
20
F0
ENDCHAR
STARTCHAR 00BA
ENCODING 186
SWIDTH 411 0
DWIDTH 7 0
BBX 5 8 1 5
BITMAP
70
88
88
88
88
88
88
70
ENDCHAR
STARTCHAR 00BB
ENCODING 187
SWIDTH 352 0
DWIDTH 6 0
BBX 4 7 1 1
BITMAP
A0
A0
50
50
90
A0
A0
ENDCHAR
STARTCHAR 00BC
ENCODING 188
SWIDTH 764 0
DWIDTH 13 0
BBX 12 15 1 -1
BITMAP
2080
E080
2100
2100
2200
2200
2200
2440
F480
0880
0920
0920
11F0
1020
2020
ENDCHAR
STARTCHAR 00BD
ENCODING 189
SWIDTH 764 0
DWIDTH 13 0
BBX 11 15 1 -1
BITMAP
2080
E080
2100
2100
2200
2200
23C0
2420
F420
0820
0820
0840
1080
1080
21E0
ENDCHAR
STARTCHAR 00BE
ENCODING 190
SWIDTH 764 0
DWIDTH 13 0
BBX 12 15 1 -1
BITMAP
E080
1080
1100
1100
6200
1200
1200
1440
E480
0880
0920
0920
11F0
1020
2020
ENDCHAR
STARTCHAR 00BF
ENCODING 191
SWIDTH 352 0
DWIDTH 6 0
BBX 5 12 1 -3
BITMAP
20
00
20
20
20
20
40
80
80
80
80
F8
ENDCHAR
STARTCHAR 00C0
ENCODING 192
SWIDTH 588 0
DWIDTH 10 0
BBX 9 16 0 0
BITMAP
1000
0800
0000
0800
0C00
0C00
1400
1200
1200
2200
2100
3F00
4100
4080
4080
8080
ENDCHAR
STARTCHAR 00C1
ENCODING 193
SWIDTH 588 0
DWIDTH 10 0
BBX 9 16 0 0
BITMAP
0400
0400
0000
0800
0C00
0C00
1400
1200
1200
2200
2100
3F00
4100
4080
4080
8080
ENDCHAR
STARTCHAR 00C2
ENCODING 194
SWIDTH 588 0
DWIDTH 10 0
BBX 9 16 0 0
BITMAP
0C00
1400
0200
0800
0C00
0C00
1400
1200
1200
2200
2100
3F00
4100
4080
4080
8080
ENDCHAR
STARTCHAR 00C3
ENCODING 195
SWIDTH 588 0
DWIDTH 10 0
BBX 9 16 0 0
BITMAP
1900
2600
0000
0800
0C00
0C00
1400
1200
1200
2200
2100
3F00
4100
4080
4080
8080
ENDCHAR
STARTCHAR 00C4
ENCODING 196
SWIDTH 588 0
DWIDTH 10 0
BBX 9 15 0 0
BITMAP
1200
0000
0800
0C00
0C00
1400
1200
1200
2200
2100
3F00
4100
4080
4080
8080
ENDCHAR
STARTCHAR 00C5
ENCODING 197
SWIDTH 588 0
DWIDTH 10 0
BBX 9 17 0 0
BITMAP
0C00
1200
1400
0800
0800
0C00
0C00
1400
1200
1200
2200
2100
3F00
4100
4080
4080
8080
ENDCHAR
STARTCHAR 00C6
ENCODING 198
SWIDTH 764 0
DWIDTH 13 0
BBX 13 13 0 0
BITMAP
07F8
0A00
0A00
1200
1200
1200
21F0
2200
3E00
4100
4100
4100
81F8
ENDCHAR
STARTCHAR 00C7
ENCODING 199
SWIDTH 470 0
DWIDTH 8 0
BBX 7 16 1 -3
BITMAP
3E
40
80
80
80
80
80
80
80
80
80
40
36
08
04
1C
ENDCHAR
STARTCHAR 00C8
ENCODING 200
SWIDTH 470 0
DWIDTH 8 0
BBX 7 16 1 0
BITMAP
20
10
00
FE
80
80
80
80
80
FC
80
80
80
80
80
FE
ENDCHAR
STARTCHAR 00C9
ENCODING 201
SWIDTH 470 0
DWIDTH 8 0
BBX 7 16 1 0
BITMAP
08
08
10
FE
80
80
80
80
80
FC
80
80
80
80
80
FE
ENDCHAR
STARTCHAR 00CA
ENCODING 202
SWIDTH 470 0
DWIDTH 8 0
BBX 7 16 1 0
BITMAP
10
28
04
FE
80
80
80
80
80
FC
80
80
80
80
80
FE
ENDCHAR
STARTCHAR 00CB
ENCODING 203
SWIDTH 470 0
DWIDTH 8 0
BBX 7 15 1 0
BITMAP
24
00
FE
80
80
80
80
80
FC
80
80
80
80
80
FE
ENDCHAR
STARTCHAR 00CC
ENCODING 204
SWIDTH 176 0
DWIDTH 3 0
BBX 2 16 0 0
BITMAP
80
40
00
40
40
40
40
40
40
40
40
40
40
40
40
40
ENDCHAR
STARTCHAR 00CD
ENCODING 205
SWIDTH 176 0
DWIDTH 3 0
BBX 2 16 1 0
BITMAP
40
40
80
80
80
80
80
80
80
80
80
80
80
80
80
80
ENDCHAR
STARTCHAR 00CE
ENCODING 206
SWIDTH 176 0
DWIDTH 3 0
BBX 4 16 0 0
BITMAP
40
A0
10
40
40
40
40
40
40
40
40
40
40
40
40
40
ENDCHAR
STARTCHAR 00CF
ENCODING 207
SWIDTH 176 0
DWIDTH 3 0
BBX 4 15 0 0
BITMAP
90
00
40
40
40
40
40
40
40
40
40
40
40
40
40
ENDCHAR
STARTCHAR 00D0
ENCODING 208
SWIDTH 588 0
DWIDTH 10 0
BBX 9 13 0 0
BITMAP
3C00
4200
4100
4080
4080
4080
F880
4080
4080
4080
4100
4100
7E00
ENDCHAR
STARTCHAR 00D1
ENCODING 209
SWIDTH 647 0
DWIDTH 11 0
BBX 8 16 1 0
BITMAP
12
2C
00
81
C1
C1
A1
91
91
89
89
85
85
83
81
81
ENDCHAR
STARTCHAR 00D2
ENCODING 210
SWIDTH 588 0
DWIDTH 10 0
BBX 8 16 1 0
BITMAP
30
10
00
3C
42
81
81
81
81
81
81
81
81
81
42
3C
ENDCHAR
STARTCHAR 00D3
ENCODING 211
SWIDTH 588 0
DWIDTH 10 0
BBX 8 16 1 0
BITMAP
08
08
00
3C
42
81
81
81
81
81
81
81
81
81
42
3C
ENDCHAR
STARTCHAR 00D4
ENCODING 212
SWIDTH 588 0
DWIDTH 10 0
BBX 8 16 1 0
BITMAP
18
24
00
3C
42
81
81
81
81
81
81
81
81
81
42
3C
ENDCHAR
STARTCHAR 00D5
ENCODING 213
SWIDTH 588 0
DWIDTH 10 0
BBX 8 16 1 0
BITMAP
32
4C
00
3C
42
81
81
81
81
81
81
81
81
81
42
3C
ENDCHAR
STARTCHAR 00D6
ENCODING 214
SWIDTH 588 0
DWIDTH 10 0
BBX 8 15 1 0
BITMAP
24
00
3C
42
81
81
81
81
81
81
81
81
81
42
3C
ENDCHAR
STARTCHAR 00D7
ENCODING 215
SWIDTH 470 0
DWIDTH 8 0
BBX 6 6 1 3
BITMAP
84
48
30
30
48
84
ENDCHAR
STARTCHAR 00D8
ENCODING 216
SWIDTH 588 0
DWIDTH 10 0
BBX 8 13 1 0
BITMAP
3D
42
82
85
85
89
89
91
A1
A1
C1
42
BC
ENDCHAR
STARTCHAR 00D9
ENCODING 217
SWIDTH 588 0
DWIDTH 10 0
BBX 8 16 1 0
BITMAP
10
10
00
81
81
81
81
81
81
81
81
81
81
81
41
3E
ENDCHAR
STARTCHAR 00DA
ENCODING 218
SWIDTH 588 0
DWIDTH 10 0
BBX 8 16 1 0
BITMAP
0C
08
00
81
81
81
81
81
81
81
81
81
81
81
41
3E
ENDCHAR
STARTCHAR 00DB
ENCODING 219
SWIDTH 588 0
DWIDTH 10 0
BBX 8 16 1 0
BITMAP
18
24
00
81
81
81
81
81
81
81
81
81
81
81
41
3E
ENDCHAR
STARTCHAR 00DC
ENCODING 220
SWIDTH 588 0
DWIDTH 10 0
BBX 8 15 1 0
BITMAP
24
00
81
81
81
81
81
81
81
81
81
81
81
41
3E
ENDCHAR
STARTCHAR 00DD
ENCODING 221
SWIDTH 470 0
DWIDTH 8 0
BBX 8 16 0 0
BITMAP
04
08
00
81
81
42
42
24
14
18
08
08
08
08
08
08
ENDCHAR
STARTCHAR 00DE
ENCODING 222
SWIDTH 529 0
DWIDTH 9 0
BBX 7 13 1 0
BITMAP
80
80
F8
84
82
82
82
82
82
84
F8
80
80
ENDCHAR
STARTCHAR 00DF
ENCODING 223
SWIDTH 588 0
DWIDTH 10 0
BBX 9 14 0 0
BITMAP
1E00
2100
2100
2100
2100
E600
2800
2800
2800
2700
2080
2080
2080
2F00
ENDCHAR
STARTCHAR 00E0
ENCODING 224
SWIDTH 411 0
DWIDTH 7 0
BBX 5 14 1 0
BITMAP
40
40
20
00
20
D8
08
08
08
78
88
88
88
F8
ENDCHAR
STARTCHAR 00E1
ENCODING 225
SWIDTH 411 0
DWIDTH 7 0
BBX 5 14 1 0
BITMAP
10
10
20
00
20
D8
08
08
08
78
88
88
88
F8
ENDCHAR
STARTCHAR 00E2
ENCODING 226
SWIDTH 411 0
DWIDTH 7 0
BBX 5 14 1 0
BITMAP
20
50
50
00
20
D8
08
08
08
78
88
88
88
F8
ENDCHAR
STARTCHAR 00E3
ENCODING 227
SWIDTH 411 0
DWIDTH 7 0
BBX 5 13 1 0
BITMAP
E8
10
00
20
D8
08
08
08
78
88
88
88
F8
ENDCHAR
STARTCHAR 00E4
ENCODING 228
SWIDTH 411 0
DWIDTH 7 0
BBX 5 13 1 0
BITMAP
50
00
00
20
D8
08
08
08
78
88
88
88
F8
ENDCHAR
STARTCHAR 00E5
ENCODING 229
SWIDTH 411 0
DWIDTH 7 0
BBX 5 14 1 0
BITMAP
30
50
50
20
20
D8
08
08
08
78
88
88
88
F8
ENDCHAR
STARTCHAR 00E6
ENCODING 230
SWIDTH 705 0
DWIDTH 12 0
BBX 10 9 1 0
BITMAP
FF80
0C40
0840
0840
7FC0
8800
8400
8C00
F3C0
ENDCHAR
STARTCHAR 00E7
ENCODING 231
SWIDTH 352 0
DWIDTH 6 0
BBX 5 12 1 -3
BITMAP
78
80
80
80
80
80
80
80
58
20
10
70
ENDCHAR
STARTCHAR 00E8
ENCODING 232
SWIDTH 411 0
DWIDTH 7 0
BBX 6 14 1 0
BITMAP
40
40
20
00
20
58
88
84
84
FC
80
80
80
78
ENDCHAR
STARTCHAR 00E9
ENCODING 233
SWIDTH 411 0
DWIDTH 7 0
BBX 6 14 1 0
BITMAP
10
10
10
20
20
58
88
84
84
FC
80
80
80
78
ENDCHAR
STARTCHAR 00EA
ENCODING 234
SWIDTH 411 0
DWIDTH 7 0
BBX 6 14 1 0
BITMAP
20
30
50
08
20
58
88
84
84
FC
80
80
80
78
ENDCHAR
STARTCHAR 00EB
ENCODING 235
SWIDTH 411 0
DWIDTH 7 0
BBX 6 13 1 0
BITMAP
48
00
00
20
58
88
84
84
FC
80
80
80
78
ENDCHAR
STARTCHAR 00EC
ENCODING 236
SWIDTH 176 0
DWIDTH 3 0
BBX 2 14 0 0
BITMAP
80
80
40
00
00
40
40
40
40
40
40
40
40
40
ENDCHAR
STARTCHAR 00ED
ENCODING 237
SWIDTH 176 0
DWIDTH 3 0
BBX 2 14 1 0
BITMAP
40
40
80
00
00
80
80
80
80
80
80
80
80
80
ENDCHAR
STARTCHAR 00EE
ENCODING 238
SWIDTH 176 0
DWIDTH 3 0
BBX 3 14 0 0
BITMAP
40
A0
A0
00
00
40
40
40
40
40
40
40
40
40
ENDCHAR
STARTCHAR 00EF
ENCODING 239
SWIDTH 176 0
DWIDTH 3 0
BBX 3 13 0 0
BITMAP
A0
00
00
00
40
40
40
40
40
40
40
40
40
ENDCHAR
STARTCHAR 00F0
ENCODING 240
SWIDTH 470 0
DWIDTH 8 0
BBX 6 14 1 0
BITMAP
60
10
FC
08
28
58
84
84
84
84
84
84
84
78
ENDCHAR
STARTCHAR 00F1
ENCODING 241
SWIDTH 470 0
DWIDTH 8 0
BBX 6 13 1 0
BITMAP
78
00
00
10
E8
84
84
84
84
84
84
84
84
ENDCHAR
STARTCHAR 00F2
ENCODING 242
SWIDTH 470 0
DWIDTH 8 0
BBX 6 14 1 0
BITMAP
40
20
20
00
20
58
84
84
84
84
84
84
84
78
ENDCHAR
STARTCHAR 00F3
ENCODING 243
SWIDTH 470 0
DWIDTH 8 0
BBX 6 14 1 0
BITMAP
08
10
10
00
20
58
84
84
84
84
84
84
84
78
ENDCHAR
STARTCHAR 00F4
ENCODING 244
SWIDTH 470 0
DWIDTH 8 0
BBX 6 14 1 0
BITMAP
20
30
48
00
20
58
84
84
84
84
84
84
84
78
ENDCHAR
STARTCHAR 00F5
ENCODING 245
SWIDTH 470 0
DWIDTH 8 0
BBX 6 13 1 0
BITMAP
78
00
00
20
58
84
84
84
84
84
84
84
78
ENDCHAR
STARTCHAR 00F6
ENCODING 246
SWIDTH 470 0
DWIDTH 8 0
BBX 6 13 1 0
BITMAP
48
00
00
20
58
84
84
84
84
84
84
84
78
ENDCHAR
STARTCHAR 00F7
ENCODING 247
SWIDTH 529 0
DWIDTH 9 0
BBX 6 7 1 3
BITMAP
10
00
00
FC
00
00
10
ENDCHAR
STARTCHAR 00F8
ENCODING 248
SWIDTH 470 0
DWIDTH 8 0
BBX 6 9 1 0
BITMAP
7C
8C
8C
94
A4
A4
C4
84
F8
ENDCHAR
STARTCHAR 00F9
ENCODING 249
SWIDTH 470 0
DWIDTH 8 0
BBX 6 14 1 0
BITMAP
40
20
20
00
00
84
84
84
84
84
84
84
84
7C
ENDCHAR
STARTCHAR 00FA
ENCODING 250
SWIDTH 470 0
DWIDTH 8 0
BBX 6 14 1 0
BITMAP
08
10
10
00
00
84
84
84
84
84
84
84
84
7C
ENDCHAR
STARTCHAR 00FB
ENCODING 251
SWIDTH 470 0
DWIDTH 8 0
BBX 6 14 1 0
BITMAP
20
30
48
00
00
84
84
84
84
84
84
84
84
7C
ENDCHAR
STARTCHAR 00FC
ENCODING 252
SWIDTH 470 0
DWIDTH 8 0
BBX 6 13 1 0
BITMAP
48
00
00
00
84
84
84
84
84
84
84
84
7C
ENDCHAR
STARTCHAR 00FD
ENCODING 253
SWIDTH 411 0
DWIDTH 7 0
BBX 7 18 0 -4
BITMAP
08
08
10
00
00
82
82
44
44
24
28
28
18
10
10
10
20
20
ENDCHAR
STARTCHAR 00FE
ENCODING 254
SWIDTH 470 0
DWIDTH 8 0
BBX 6 18 1 -4
BITMAP
80
80
80
80
80
F8
84
84
84
84
84
84
88
F0
80
80
80
80
ENDCHAR
STARTCHAR 00FF
ENCODING 255
SWIDTH 411 0
DWIDTH 7 0
BBX 7 17 0 -4
BITMAP
2C
00
00
00
82
82
44
44
24
28
28
18
10
10
10
20
20
ENDCHAR
STARTCHAR 0100
ENCODING 256
SWIDTH 588 0
DWIDTH 10 0
BBX 9 15 0 0
BITMAP
1E00
0000
0800
0C00
0C00
1400
1200
1200
2200
2100
3F00
4100
4080
4080
8080
ENDCHAR
STARTCHAR 0101
ENCODING 257
SWIDTH 411 0
DWIDTH 7 0
BBX 5 12 1 0
BITMAP
F8
00
20
D8
08
08
08
78
88
88
88
F8
ENDCHAR
STARTCHAR 0102
ENCODING 258
SWIDTH 588 0
DWIDTH 10 0
BBX 9 16 0 0
BITMAP
1200
1E00
0000
0800
0C00
0C00
1400
1200
1200
2200
2100
3F00
4100
4080
4080
8080
ENDCHAR
STARTCHAR 0103
ENCODING 259
SWIDTH 411 0
DWIDTH 7 0
BBX 5 14 1 0
BITMAP
88
48
70
00
20
D8
08
08
08
78
88
88
88
F8
ENDCHAR
STARTCHAR 0104
ENCODING 260
SWIDTH 588 0
DWIDTH 10 0
BBX 10 16 0 -3
BITMAP
0800
0C00
0C00
1400
1200
1200
2200
2100
3F00
4100
4080
4080
8080
0080
0100
01C0
ENDCHAR
STARTCHAR 0105
ENCODING 261
SWIDTH 411 0
DWIDTH 7 0
BBX 6 12 1 -3
BITMAP
F8
08
08
08
78
88
88
88
F8
08
10
1C
ENDCHAR
STARTCHAR 0106
ENCODING 262
SWIDTH 470 0
DWIDTH 8 0
BBX 7 16 1 0
BITMAP
08
08
00
3E
40
80
80
80
80
80
80
80
80
80
40
3E
ENDCHAR
STARTCHAR 0107
ENCODING 263
SWIDTH 352 0
DWIDTH 6 0
BBX 5 14 1 0
BITMAP
10
10
20
00
10
68
80
80
80
80
80
80
80
78
ENDCHAR
STARTCHAR 0108
ENCODING 264
SWIDTH 470 0
DWIDTH 8 0
BBX 7 16 1 0
BITMAP
18
24
00
3E
40
80
80
80
80
80
80
80
80
80
40
3E
ENDCHAR
STARTCHAR 0109
ENCODING 265
SWIDTH 352 0
DWIDTH 6 0
BBX 5 14 1 0
BITMAP
20
50
50
00
10
68
80
80
80
80
80
80
80
78
ENDCHAR
STARTCHAR 010A
ENCODING 266
SWIDTH 470 0
DWIDTH 8 0
BBX 7 15 1 0
BITMAP
18
00
3E
40
80
80
80
80
80
80
80
80
80
40
3E
ENDCHAR
STARTCHAR 010B
ENCODING 267
SWIDTH 352 0
DWIDTH 6 0
BBX 5 13 1 0
BITMAP
20
00
00
10
68
80
80
80
80
80
80
80
78
ENDCHAR
STARTCHAR 010C
ENCODING 268
SWIDTH 470 0
DWIDTH 8 0
BBX 7 16 1 0
BITMAP
24
18
00
3E
40
80
80
80
80
80
80
80
80
80
40
3E
ENDCHAR
STARTCHAR 010D
ENCODING 269
SWIDTH 352 0
DWIDTH 6 0
BBX 5 14 1 0
BITMAP
48
50
20
00
10
68
80
80
80
80
80
80
80
78
ENDCHAR
STARTCHAR 010E
ENCODING 270
SWIDTH 588 0
DWIDTH 10 0
BBX 8 16 1 0
BITMAP
68
30
00
78
84
82
81
81
81
81
81
81
81
82
82
FC
ENDCHAR
STARTCHAR 010F
ENCODING 271
SWIDTH 470 0
DWIDTH 8 0
BBX 7 14 1 0
BITMAP
06
06
06
06
14
6C
84
84
84
84
84
84
84
7C
ENDCHAR
STARTCHAR 0110
ENCODING 272
SWIDTH 588 0
DWIDTH 10 0
BBX 9 13 0 0
BITMAP
3C00
4200
4100
4080
4080
4080
F880
4080
4080
4080
4100
4100
7E00
ENDCHAR
STARTCHAR 0111
ENCODING 273
SWIDTH 470 0
DWIDTH 8 0
BBX 7 14 1 0
BITMAP
04
04
3E
04
14
6C
84
84
84
84
84
84
84
7C
ENDCHAR
STARTCHAR 0112
ENCODING 274
SWIDTH 470 0
DWIDTH 8 0
BBX 7 15 1 0
BITMAP
3C
00
FE
80
80
80
80
80
FC
80
80
80
80
80
FE
ENDCHAR
STARTCHAR 0113
ENCODING 275
SWIDTH 411 0
DWIDTH 7 0
BBX 6 12 1 0
BITMAP
78
00
20
58
88
84
84
FC
80
80
80
78
ENDCHAR
STARTCHAR 0114
ENCODING 276
SWIDTH 470 0
DWIDTH 8 0
BBX 7 16 1 0
BITMAP
44
38
00
FE
80
80
80
80
80
FC
80
80
80
80
80
FE
ENDCHAR
STARTCHAR 0115
ENCODING 277
SWIDTH 411 0
DWIDTH 7 0
BBX 6 14 1 0
BITMAP
48
48
70
00
20
58
88
84
84
FC
80
80
80
78
ENDCHAR
STARTCHAR 0116
ENCODING 278
SWIDTH 470 0
DWIDTH 8 0
BBX 7 15 1 0
BITMAP
10
00
FE
80
80
80
80
80
FC
80
80
80
80
80
FE
ENDCHAR
STARTCHAR 0117
ENCODING 279
SWIDTH 411 0
DWIDTH 7 0
BBX 6 13 1 0
BITMAP
20
00
00
20
58
88
84
84
FC
80
80
80
78
ENDCHAR
STARTCHAR 0118
ENCODING 280
SWIDTH 470 0
DWIDTH 8 0
BBX 8 16 1 -3
BITMAP
FE
80
80
80
80
80
FC
80
80
80
80
80
FE
04
04
07
ENDCHAR
STARTCHAR 0119
ENCODING 281
SWIDTH 411 0
DWIDTH 7 0
BBX 6 12 1 -3
BITMAP
78
88
84
84
FC
80
80
80
68
10
20
38
ENDCHAR
STARTCHAR 011A
ENCODING 282
SWIDTH 470 0
DWIDTH 8 0
BBX 7 16 1 0
BITMAP
24
18
00
FE
80
80
80
80
80
FC
80
80
80
80
80
FE
ENDCHAR
STARTCHAR 011B
ENCODING 283
SWIDTH 411 0
DWIDTH 7 0
BBX 6 14 1 0
BITMAP
48
50
20
00
20
58
88
84
84
FC
80
80
80
78
ENDCHAR
STARTCHAR 011C
ENCODING 284
SWIDTH 529 0
DWIDTH 9 0
BBX 7 16 1 0
BITMAP
08
14
20
1E
60
80
80
80
80
80
82
82
82
82
42
3E
ENDCHAR
STARTCHAR 011D
ENCODING 285
SWIDTH 470 0
DWIDTH 8 0
BBX 6 18 1 -4
BITMAP
20
30
48
00
10
6C
84
84
84
84
84
84
84
7C
04
04
08
F0
ENDCHAR
STARTCHAR 011E
ENCODING 286
SWIDTH 529 0
DWIDTH 9 0
BBX 7 16 1 0
BITMAP
22
1C
00
1E
60
80
80
80
80
80
82
82
82
82
42
3E
ENDCHAR
STARTCHAR 011F
ENCODING 287
SWIDTH 470 0
DWIDTH 8 0
BBX 6 18 1 -4
BITMAP
48
48
38
00
10
6C
84
84
84
84
84
84
84
7C
04
04
08
F0
ENDCHAR
STARTCHAR 0120
ENCODING 288
SWIDTH 529 0
DWIDTH 9 0
BBX 7 15 1 0
BITMAP
08
00
1E
60
80
80
80
80
80
82
82
82
82
42
3E
ENDCHAR
STARTCHAR 0121
ENCODING 289
SWIDTH 470 0
DWIDTH 8 0
BBX 6 17 1 -4
BITMAP
10
00
00
10
6C
84
84
84
84
84
84
84
7C
04
04
08
F0
ENDCHAR
STARTCHAR 0122
ENCODING 290
SWIDTH 529 0
DWIDTH 9 0
BBX 7 17 1 -4
BITMAP
1E
60
80
80
80
80
80
82
82
82
82
42
3E
00
00
08
08
ENDCHAR
STARTCHAR 0123
ENCODING 291
SWIDTH 470 0
DWIDTH 8 0
BBX 6 18 1 -4
BITMAP
20
30
00
00
10
6C
84
84
84
84
84
84
84
7C
04
04
08
F0
ENDCHAR
STARTCHAR 0124
ENCODING 292
SWIDTH 588 0
DWIDTH 10 0
BBX 8 16 1 0
BITMAP
18
14
20
81
81
81
81
81
81
FF
81
81
81
81
81
81
ENDCHAR
STARTCHAR 0125
ENCODING 293
SWIDTH 470 0
DWIDTH 8 0
BBX 6 17 1 0
BITMAP
30
48
00
80
80
80
80
90
E8
84
84
84
84
84
84
84
84
ENDCHAR
STARTCHAR 0126
ENCODING 294
SWIDTH 588 0
DWIDTH 10 0
BBX 10 13 0 0
BITMAP
4080
4080
4080
FFC0
4080
4080
7F80
4080
4080
4080
4080
4080
4080
ENDCHAR
STARTCHAR 0127
ENCODING 295
SWIDTH 470 0
DWIDTH 8 0
BBX 7 14 0 0
BITMAP
40
40
F0
40
48
74
42
42
42
42
42
42
42
42
ENDCHAR
STARTCHAR 0128
ENCODING 296
SWIDTH 176 0
DWIDTH 3 0
BBX 5 16 -1 0
BITMAP
68
90
00
20
20
20
20
20
20
20
20
20
20
20
20
20
ENDCHAR
STARTCHAR 0129
ENCODING 297
SWIDTH 176 0
DWIDTH 3 0
BBX 5 13 -1 0
BITMAP
E8
10
00
00
20
20
20
20
20
20
20
20
20
ENDCHAR
STARTCHAR 012A
ENCODING 298
SWIDTH 176 0
DWIDTH 3 0
BBX 4 15 0 0
BITMAP
F0
00
40
40
40
40
40
40
40
40
40
40
40
40
40
ENDCHAR
STARTCHAR 012B
ENCODING 299
SWIDTH 176 0
DWIDTH 3 0
BBX 5 12 -1 0
BITMAP
F8
00
00
20
20
20
20
20
20
20
20
20
ENDCHAR
STARTCHAR 012C
ENCODING 300
SWIDTH 176 0
DWIDTH 3 0
BBX 4 16 0 0
BITMAP
90
E0
00
40
40
40
40
40
40
40
40
40
40
40
40
40
ENDCHAR
STARTCHAR 012D
ENCODING 301
SWIDTH 176 0
DWIDTH 3 0
BBX 3 14 0 0
BITMAP
A0
A0
E0
00
00
40
40
40
40
40
40
40
40
40
ENDCHAR
STARTCHAR 012E
ENCODING 302
SWIDTH 176 0
DWIDTH 3 0
BBX 3 16 0 -3
BITMAP
40
40
40
40
40
40
40
40
40
40
40
40
40
80
80
E0
ENDCHAR
STARTCHAR 012F
ENCODING 303
SWIDTH 176 0
DWIDTH 3 0
BBX 3 16 0 -3
BITMAP
40
00
00
00
40
40
40
40
40
40
40
40
40
80
80
E0
ENDCHAR
STARTCHAR 0130
ENCODING 304
SWIDTH 176 0
DWIDTH 3 0
BBX 1 15 1 0
BITMAP
80
00
80
80
80
80
80
80
80
80
80
80
80
80
80
ENDCHAR
STARTCHAR 0131
ENCODING 305
SWIDTH 176 0
DWIDTH 3 0
BBX 1 9 1 0
BITMAP
80
80
80
80
80
80
80
80
80
ENDCHAR
STARTCHAR 0134
ENCODING 308
SWIDTH 176 0
DWIDTH 3 0
BBX 4 19 0 -3
BITMAP
40
A0
10
40
40
40
40
40
40
40
40
40
40
40
40
40
40
80
80
ENDCHAR
STARTCHAR 0135
ENCODING 309
SWIDTH 176 0
DWIDTH 3 0
BBX 3 18 0 -4
BITMAP
40
A0
A0
00
00
40
40
40
40
40
40
40
40
40
40
40
80
80
ENDCHAR
STARTCHAR 0136
ENCODING 310
SWIDTH 529 0
DWIDTH 9 0
BBX 8 17 1 -4
BITMAP
81
82
84
84
88
90
E0
90
88
84
84
82
81
00
00
10
10
ENDCHAR
STARTCHAR 0137
ENCODING 311
SWIDTH 411 0
DWIDTH 7 0
BBX 6 18 1 -4
BITMAP
80
80
80
80
80
84
88
90
A0
E0
90
88
88
84
00
00
20
10
ENDCHAR
STARTCHAR 0138
ENCODING 312
SWIDTH 411 0
DWIDTH 7 0
BBX 6 9 1 0
BITMAP
84
88
90
A0
E0
90
88
88
84
ENDCHAR
STARTCHAR 0139
ENCODING 313
SWIDTH 470 0
DWIDTH 8 0
BBX 7 16 1 0
BITMAP
40
40
80
80
80
80
80
80
80
80
80
80
80
80
80
FE
ENDCHAR
STARTCHAR 013A
ENCODING 314
SWIDTH 176 0
DWIDTH 3 0
BBX 2 17 1 0
BITMAP
40
80
00
80
80
80
80
80
80
80
80
80
80
80
80
80
80
ENDCHAR
STARTCHAR 013B
ENCODING 315
SWIDTH 470 0
DWIDTH 8 0
BBX 7 17 1 -4
BITMAP
80
80
80
80
80
80
80
80
80
80
80
80
FE
00
00
10
10
ENDCHAR
STARTCHAR 013C
ENCODING 316
SWIDTH 176 0
DWIDTH 3 0
BBX 1 18 1 -4
BITMAP
80
80
80
80
80
80
80
80
80
80
80
80
80
80
00
00
80
80
ENDCHAR
STARTCHAR 013D
ENCODING 317
SWIDTH 470 0
DWIDTH 8 0
BBX 7 14 1 0
BITMAP
08
88
88
88
80
80
80
80
80
80
80
80
80
FE
ENDCHAR
STARTCHAR 013E
ENCODING 318
SWIDTH 176 0
DWIDTH 3 0
BBX 2 14 1 0
BITMAP
C0
C0
C0
C0
80
80
80
80
80
80
80
80
80
80
ENDCHAR
STARTCHAR 013F
ENCODING 319
SWIDTH 470 0
DWIDTH 8 0
BBX 7 13 1 0
BITMAP
80
80
80
80
80
80
88
80
80
80
80
80
FE
ENDCHAR
STARTCHAR 0140
ENCODING 320
SWIDTH 176 0
DWIDTH 3 0
BBX 3 14 1 0
BITMAP
80
80
80
80
80
80
80
E0
80
80
80
80
80
80
ENDCHAR
STARTCHAR 0141
ENCODING 321
SWIDTH 470 0
DWIDTH 8 0
BBX 8 13 0 0
BITMAP
40
40
40
40
50
60
40
C0
C0
40
40
40
7F
ENDCHAR
STARTCHAR 0142
ENCODING 322
SWIDTH 176 0
DWIDTH 3 0
BBX 3 14 0 0
BITMAP
40
40
40
40
40
40
60
40
40
C0
40
40
40
40
ENDCHAR
STARTCHAR 0143
ENCODING 323
SWIDTH 647 0
DWIDTH 11 0
BBX 8 16 1 0
BITMAP
04
08
00
81
C1
C1
A1
91
91
89
89
85
85
83
81
81
ENDCHAR
STARTCHAR 0144
ENCODING 324
SWIDTH 470 0
DWIDTH 8 0
BBX 6 14 1 0
BITMAP
08
10
10
00
10
E8
84
84
84
84
84
84
84
84
ENDCHAR
STARTCHAR 0145
ENCODING 325
SWIDTH 647 0
DWIDTH 11 0
BBX 8 17 1 -4
BITMAP
81
C1
C1
A1
91
91
89
89
85
85
83
81
81
00
00
08
08
ENDCHAR
STARTCHAR 0146
ENCODING 326
SWIDTH 470 0
DWIDTH 8 0
BBX 6 13 1 -4
BITMAP
F8
84
84
84
84
84
84
84
84
00
00
30
10
ENDCHAR
STARTCHAR 0147
ENCODING 327
SWIDTH 647 0
DWIDTH 11 0
BBX 8 16 1 0
BITMAP
24
18
00
81
C1
C1
A1
91
91
89
89
85
85
83
81
81
ENDCHAR
STARTCHAR 0148
ENCODING 328
SWIDTH 470 0
DWIDTH 8 0
BBX 6 14 1 0
BITMAP
48
30
30
00
10
E8
84
84
84
84
84
84
84
84
ENDCHAR
STARTCHAR 0149
ENCODING 329
SWIDTH 470 0
DWIDTH 8 0
BBX 7 14 0 0
BITMAP
80
80
00
00
08
74
42
42
42
42
42
42
42
42
ENDCHAR
STARTCHAR 014A
ENCODING 330
SWIDTH 647 0
DWIDTH 11 0
BBX 8 17 1 -4
BITMAP
81
C1
C1
A1
91
91
89
89
85
85
83
81
81
01
01
01
02
ENDCHAR
STARTCHAR 014B
ENCODING 331
SWIDTH 470 0
DWIDTH 8 0
BBX 6 13 1 -4
BITMAP
F8
84
84
84
84
84
84
84
84
04
04
08
08
ENDCHAR
STARTCHAR 014C
ENCODING 332
SWIDTH 588 0
DWIDTH 10 0
BBX 8 15 1 0
BITMAP
3C
00
3C
42
81
81
81
81
81
81
81
81
81
42
3C
ENDCHAR
STARTCHAR 014D
ENCODING 333
SWIDTH 470 0
DWIDTH 8 0
BBX 6 12 1 0
BITMAP
78
00
20
58
84
84
84
84
84
84
84
78
ENDCHAR
STARTCHAR 014E
ENCODING 334
SWIDTH 588 0
DWIDTH 10 0
BBX 8 16 1 0
BITMAP
24
3C
00
3C
42
81
81
81
81
81
81
81
81
81
42
3C
ENDCHAR
STARTCHAR 014F
ENCODING 335
SWIDTH 470 0
DWIDTH 8 0
BBX 6 14 1 0
BITMAP
48
48
70
00
20
58
84
84
84
84
84
84
84
78
ENDCHAR
STARTCHAR 0150
ENCODING 336
SWIDTH 588 0
DWIDTH 10 0
BBX 8 16 1 0
BITMAP
14
14
00
3C
42
81
81
81
81
81
81
81
81
81
42
3C
ENDCHAR
STARTCHAR 0151
ENCODING 337
SWIDTH 470 0
DWIDTH 8 0
BBX 6 14 1 0
BITMAP
28
28
48
00
20
58
84
84
84
84
84
84
84
78
ENDCHAR
STARTCHAR 0152
ENCODING 338
SWIDTH 823 0
DWIDTH 14 0
BBX 13 13 1 0
BITMAP
1FF8
6200
4200
8200
8200
8200
81F0
8200
8200
8200
8200
4200
3FF8
ENDCHAR
STARTCHAR 0153
ENCODING 339
SWIDTH 764 0
DWIDTH 13 0
BBX 11 9 1 0
BITMAP
7BC0
8420
8420
8420
87E0
8400
8400
8600
79E0
ENDCHAR
STARTCHAR 0154
ENCODING 340
SWIDTH 588 0
DWIDTH 10 0
BBX 8 16 1 0
BITMAP
08
10
00
78
86
82
82
82
82
8C
F0
88
84
82
82
81
ENDCHAR
STARTCHAR 0155
ENCODING 341
SWIDTH 294 0
DWIDTH 5 0
BBX 4 14 1 0
BITMAP
20
20
20
00
00
F0
80
80
80
80
80
80
80
80
ENDCHAR
STARTCHAR 0156
ENCODING 342
SWIDTH 588 0
DWIDTH 10 0
BBX 8 17 1 -4
BITMAP
78
86
82
82
82
82
8C
F0
88
84
82
82
81
00
00
08
08
ENDCHAR
STARTCHAR 0157
ENCODING 343
SWIDTH 294 0
DWIDTH 5 0
BBX 4 13 1 -4
BITMAP
F0
80
80
80
80
80
80
80
80
00
00
80
80
ENDCHAR
STARTCHAR 0158
ENCODING 344
SWIDTH 588 0
DWIDTH 10 0
BBX 8 16 1 0
BITMAP
68
28
10
78
86
82
82
82
82
8C
F0
88
84
82
82
81
ENDCHAR
STARTCHAR 0159
ENCODING 345
SWIDTH 294 0
DWIDTH 5 0
BBX 4 14 1 0
BITMAP
90
A0
40
00
00
F0
80
80
80
80
80
80
80
80
ENDCHAR
STARTCHAR 015A
ENCODING 346
SWIDTH 411 0
DWIDTH 7 0
BBX 6 16 1 0
BITMAP
10
10
20
78
80
80
80
80
80
70
08
04
04
04
04
F8
ENDCHAR
STARTCHAR 015B
ENCODING 347
SWIDTH 352 0
DWIDTH 6 0
BBX 5 14 1 0
BITMAP
10
20
20
00
20
D0
80
80
80
70
08
08
08
F0
ENDCHAR
STARTCHAR 015C
ENCODING 348
SWIDTH 411 0
DWIDTH 7 0
BBX 6 16 1 0
BITMAP
20
50
08
78
80
80
80
80
80
70
08
04
04
04
04
F8
ENDCHAR
STARTCHAR 015D
ENCODING 349
SWIDTH 352 0
DWIDTH 6 0
BBX 5 14 1 0
BITMAP
20
60
90
00
20
D0
80
80
80
70
08
08
08
F0
ENDCHAR
STARTCHAR 015E
ENCODING 350
SWIDTH 411 0
DWIDTH 7 0
BBX 6 16 1 -3
BITMAP
78
80
80
80
80
80
70
08
04
04
04
04
D8
20
10
78
ENDCHAR
STARTCHAR 015F
ENCODING 351
SWIDTH 352 0
DWIDTH 6 0
BBX 5 12 1 -3
BITMAP
F0
80
80
80
70
08
08
08
D0
20
10
70
ENDCHAR
STARTCHAR 0160
ENCODING 352
SWIDTH 411 0
DWIDTH 7 0
BBX 6 16 1 0
BITMAP
48
30
00
78
80
80
80
80
80
70
08
04
04
04
04
F8
ENDCHAR
STARTCHAR 0161
ENCODING 353
SWIDTH 352 0
DWIDTH 6 0
BBX 5 14 1 0
BITMAP
90
50
60
00
20
D0
80
80
80
70
08
08
08
F0
ENDCHAR
STARTCHAR 0162
ENCODING 354
SWIDTH 470 0
DWIDTH 8 0
BBX 8 16 0 -3
BITMAP
FF
08
08
08
08
08
08
08
08
08
08
08
08
08
04
1C
ENDCHAR
STARTCHAR 0163
ENCODING 355
SWIDTH 294 0
DWIDTH 5 0
BBX 5 16 0 -3
BITMAP
20
20
40
40
F8
40
40
40
40
40
40
20
28
10
08
38
ENDCHAR
STARTCHAR 0164
ENCODING 356
SWIDTH 470 0
DWIDTH 8 0
BBX 8 16 0 0
BITMAP
24
18
00
FF
08
08
08
08
08
08
08
08
08
08
08
08
ENDCHAR
STARTCHAR 0165
ENCODING 357
SWIDTH 294 0
DWIDTH 5 0
BBX 5 14 0 0
BITMAP
08
28
28
48
40
F8
40
40
40
40
40
40
20
38
ENDCHAR
STARTCHAR 0166
ENCODING 358
SWIDTH 470 0
DWIDTH 8 0
BBX 8 13 0 0
BITMAP
FF
08
08
08
08
08
7E
08
08
08
08
08
08
ENDCHAR
STARTCHAR 0167
ENCODING 359
SWIDTH 294 0
DWIDTH 5 0
BBX 5 13 0 0
BITMAP
20
20
40
40
F8
40
40
70
40
40
40
20
38
ENDCHAR
STARTCHAR 0168
ENCODING 360
SWIDTH 588 0
DWIDTH 10 0
BBX 8 16 1 0
BITMAP
32
4C
00
81
81
81
81
81
81
81
81
81
81
81
41
3E
ENDCHAR
STARTCHAR 0169
ENCODING 361
SWIDTH 470 0
DWIDTH 8 0
BBX 6 13 1 0
BITMAP
78
00
00
00
84
84
84
84
84
84
84
84
7C
ENDCHAR
STARTCHAR 016A
ENCODING 362
SWIDTH 588 0
DWIDTH 10 0
BBX 8 15 1 0
BITMAP
3C
00
81
81
81
81
81
81
81
81
81
81
81
41
3E
ENDCHAR
STARTCHAR 016B
ENCODING 363
SWIDTH 470 0
DWIDTH 8 0
BBX 6 12 1 0
BITMAP
78
00
00
84
84
84
84
84
84
84
84
7C
ENDCHAR
STARTCHAR 016C
ENCODING 364
SWIDTH 588 0
DWIDTH 10 0
BBX 8 16 1 0
BITMAP
24
3C
00
81
81
81
81
81
81
81
81
81
81
81
41
3E
ENDCHAR
STARTCHAR 016D
ENCODING 365
SWIDTH 470 0
DWIDTH 8 0
BBX 6 14 1 0
BITMAP
48
48
70
00
00
84
84
84
84
84
84
84
84
7C
ENDCHAR
STARTCHAR 016E
ENCODING 366
SWIDTH 588 0
DWIDTH 10 0
BBX 8 17 1 0
BITMAP
18
24
34
08
81
81
81
81
81
81
81
81
81
81
81
41
3E
ENDCHAR
STARTCHAR 016F
ENCODING 367
SWIDTH 470 0
DWIDTH 8 0
BBX 6 14 1 0
BITMAP
30
48
50
20
00
84
84
84
84
84
84
84
84
7C
ENDCHAR
STARTCHAR 0170
ENCODING 368
SWIDTH 588 0
DWIDTH 10 0
BBX 8 16 1 0
BITMAP
14
14
00
81
81
81
81
81
81
81
81
81
81
81
41
3E
ENDCHAR
STARTCHAR 0171
ENCODING 369
SWIDTH 470 0
DWIDTH 8 0
BBX 6 14 1 0
BITMAP
28
28
48
00
00
84
84
84
84
84
84
84
84
7C
ENDCHAR
STARTCHAR 0172
ENCODING 370
SWIDTH 588 0
DWIDTH 10 0
BBX 8 16 1 -3
BITMAP
81
81
81
81
81
81
81
81
81
81
81
41
36
08
10
1C
ENDCHAR
STARTCHAR 0173
ENCODING 371
SWIDTH 470 0
DWIDTH 8 0
BBX 6 12 1 -3
BITMAP
84
84
84
84
84
84
84
84
7C
08
08
0C
ENDCHAR
STARTCHAR 0174
ENCODING 372
SWIDTH 882 0
DWIDTH 15 0
BBX 15 16 0 0
BITMAP
0100
0280
0040
8102
4102
4284
4284
4284
2284
2448
2448
2448
1450
1830
1830
0830
ENDCHAR
STARTCHAR 0175
ENCODING 373
SWIDTH 705 0
DWIDTH 12 0
BBX 12 14 0 0
BITMAP
0200
0600
0900
0000
0000
8210
4610
4520
4920
4920
2920
28C0
30C0
1080
ENDCHAR
STARTCHAR 0176
ENCODING 374
SWIDTH 470 0
DWIDTH 8 0
BBX 8 16 0 0
BITMAP
18
14
20
81
81
42
42
24
14
18
08
08
08
08
08
08
ENDCHAR
STARTCHAR 0177
ENCODING 375
SWIDTH 411 0
DWIDTH 7 0
BBX 7 18 0 -4
BITMAP
10
28
28
00
00
82
82
44
44
24
28
28
18
10
10
10
20
20
ENDCHAR
STARTCHAR 0178
ENCODING 376
SWIDTH 470 0
DWIDTH 8 0
BBX 8 15 0 0
BITMAP
24
00
81
81
42
42
24
14
18
08
08
08
08
08
08
ENDCHAR
STARTCHAR 0179
ENCODING 377
SWIDTH 470 0
DWIDTH 8 0
BBX 8 16 0 0
BITMAP
0C
08
00
7F
02
02
04
04
08
08
10
10
20
40
40
FF
ENDCHAR
STARTCHAR 017A
ENCODING 378
SWIDTH 352 0
DWIDTH 6 0
BBX 6 14 0 0
BITMAP
08
10
10
00
00
7C
08
08
10
10
20
40
40
FC
ENDCHAR
STARTCHAR 017B
ENCODING 379
SWIDTH 470 0
DWIDTH 8 0
BBX 8 15 0 0
BITMAP
08
00
7F
02
02
04
04
08
08
10
10
20
40
40
FF
ENDCHAR
STARTCHAR 017C
ENCODING 380
SWIDTH 352 0
DWIDTH 6 0
BBX 6 13 0 0
BITMAP
10
00
00
00
7C
08
08
10
10
20
40
40
FC
ENDCHAR
STARTCHAR 017D
ENCODING 381
SWIDTH 470 0
DWIDTH 8 0
BBX 8 16 0 0
BITMAP
24
18
00
7F
02
02
04
04
08
08
10
10
20
40
40
FF
ENDCHAR
STARTCHAR 017E
ENCODING 382
SWIDTH 352 0
DWIDTH 6 0
BBX 6 14 0 0
BITMAP
48
28
30
00
00
7C
08
08
10
10
20
40
40
FC
ENDCHAR
STARTCHAR 018F
ENCODING 399
SWIDTH 588 0
DWIDTH 10 0
BBX 8 13 1 0
BITMAP
F8
06
02
01
01
01
FF
81
81
81
81
42
3C
ENDCHAR
STARTCHAR 0192
ENCODING 402
SWIDTH 294 0
DWIDTH 5 0
BBX 6 18 -1 -4
BITMAP
0C
10
10
10
10
7C
10
10
10
10
10
10
10
10
10
10
20
C0
ENDCHAR
STARTCHAR 01A0
ENCODING 416
SWIDTH 588 0
DWIDTH 10 0
BBX 8 15 1 0
BITMAP
01
01
3F
42
81
81
81
81
81
81
81
81
81
42
3C
ENDCHAR
STARTCHAR 01A1
ENCODING 417
SWIDTH 470 0
DWIDTH 8 0
BBX 6 12 1 0
BITMAP
04
04
24
58
84
84
84
84
84
84
84
78
ENDCHAR
STARTCHAR 01AF
ENCODING 431
SWIDTH 588 0
DWIDTH 10 0
BBX 10 15 1 0
BITMAP
0040
0040
8180
8100
8100
8100
8100
8100
8100
8100
8100
8100
8100
4100
3E00
ENDCHAR
STARTCHAR 01B0
ENCODING 432
SWIDTH 470 0
DWIDTH 8 0
BBX 7 12 1 0
BITMAP
02
02
02
84
84
84
84
84
84
84
84
7C
ENDCHAR
STARTCHAR 01C4
ENCODING 452
SWIDTH 1058 0
DWIDTH 18 0
BBX 16 16 1 0
BITMAP
0016
0014
0008
787F
8401
8202
8102
8104
8104
8108
8108
8110
8120
8220
8240
FC7F
ENDCHAR
STARTCHAR 01C5
ENCODING 453
SWIDTH 941 0
DWIDTH 16 0
BBX 15 13 1 0
BITMAP
7824
8418
8200
8100
817E
8104
8104
8108
8110
8110
8220
8220
FC7E
ENDCHAR
STARTCHAR 01C6
ENCODING 454
SWIDTH 823 0
DWIDTH 14 0
BBX 13 14 1 0
BITMAP
0490
0460
0460
0400
1400
6DF8
8410
8420
8420
8440
8440
8480
8480
7DF8
ENDCHAR
STARTCHAR 01C7
ENCODING 455
SWIDTH 647 0
DWIDTH 11 0
BBX 9 16 1 -3
BITMAP
8080
8080
8080
8080
8080
8080
8080
8080
8080
8080
8080
8080
FE80
0100
0100
0200
ENDCHAR
STARTCHAR 01C8
ENCODING 456
SWIDTH 647 0
DWIDTH 11 0
BBX 9 17 1 -4
BITMAP
8080
8000
8000
8000
8080
8080
8080
8080
8080
8080
8080
8080
FE80
0100
0100
0100
0200
ENDCHAR
STARTCHAR 01C9
ENCODING 457
SWIDTH 352 0
DWIDTH 6 0
BBX 4 18 1 -4
BITMAP
80
90
80
80
80
90
90
90
90
90
90
90
90
90
10
10
20
20
ENDCHAR
STARTCHAR 01CA
ENCODING 458
SWIDTH 823 0
DWIDTH 14 0
BBX 12 16 1 -3
BITMAP
8110
C110
C110
A110
9110
9110
8910
8910
8510
8510
8310
8110
8110
0020
0020
0040
ENDCHAR
STARTCHAR 01CB
ENCODING 459
SWIDTH 823 0
DWIDTH 14 0
BBX 12 17 1 -4
BITMAP
8110
C100
C100
A100
9110
9110
8910
8910
8510
8510
8310
8110
8110
0020
0020
0020
0040
ENDCHAR
STARTCHAR 01CC
ENCODING 460
SWIDTH 647 0
DWIDTH 11 0
BBX 9 17 1 -4
BITMAP
0080
0000
0000
1000
E880
8480
8480
8480
8480
8480
8480
8480
8480
0080
0080
0100
0100
ENDCHAR
STARTCHAR 01E6
ENCODING 486
SWIDTH 529 0
DWIDTH 9 0
BBX 7 16 1 0
BITMAP
24
18
00
1E
60
80
80
80
80
80
82
82
82
82
42
3E
ENDCHAR
STARTCHAR 01E7
ENCODING 487
SWIDTH 470 0
DWIDTH 8 0
BBX 6 18 1 -4
BITMAP
48
30
30
00
10
6C
84
84
84
84
84
84
84
7C
04
04
08
F0
ENDCHAR
STARTCHAR 01EA
ENCODING 490
SWIDTH 588 0
DWIDTH 10 0
BBX 8 16 1 -3
BITMAP
3C
42
81
81
81
81
81
81
81
81
81
42
34
08
10
1C
ENDCHAR
STARTCHAR 01EB
ENCODING 491
SWIDTH 470 0
DWIDTH 8 0
BBX 6 12 1 -3
BITMAP
78
84
84
84
84
84
84
84
58
20
20
30
ENDCHAR
STARTCHAR 01F1
ENCODING 497
SWIDTH 1058 0
DWIDTH 18 0
BBX 16 13 1 0
BITMAP
787F
8401
8202
8102
8104
8104
8108
8108
8110
8120
8220
8240
FC7F
ENDCHAR
STARTCHAR 01F2
ENCODING 498
SWIDTH 941 0
DWIDTH 16 0
BBX 15 13 1 0
BITMAP
7800
8400
8200
8100
817E
8104
8104
8108
8110
8110
8220
8220
FC7E
ENDCHAR
STARTCHAR 01F3
ENCODING 499
SWIDTH 823 0
DWIDTH 14 0
BBX 13 14 1 0
BITMAP
0400
0400
0400
0400
1400
6DF8
8410
8420
8420
8440
8440
8480
8480
7DF8
ENDCHAR
STARTCHAR 01F4
ENCODING 500
SWIDTH 529 0
DWIDTH 9 0
BBX 7 16 1 0
BITMAP
04
08
00
1E
60
80
80
80
80
80
82
82
82
82
42
3E
ENDCHAR
STARTCHAR 01F5
ENCODING 501
SWIDTH 470 0
DWIDTH 8 0
BBX 6 18 1 -4
BITMAP
08
10
10
00
10
6C
84
84
84
84
84
84
84
7C
04
04
08
F0
ENDCHAR
STARTCHAR 01FA
ENCODING 506
SWIDTH 588 0
DWIDTH 10 0
BBX 9 18 0 0
BITMAP
0300
0C00
1200
1400
0800
0800
0C00
0C00
1400
1200
1200
2200
2100
3F00
4100
4080
4080
8080
ENDCHAR
STARTCHAR 01FB
ENCODING 507
SWIDTH 411 0
DWIDTH 7 0
BBX 5 15 1 0
BITMAP
08
30
50
50
20
20
D8
08
08
08
78
88
88
88
F8
ENDCHAR
STARTCHAR 01FC
ENCODING 508
SWIDTH 764 0
DWIDTH 13 0
BBX 13 16 0 0
BITMAP
0100
0100
0200
07F8
0A00
0A00
1200
1200
1200
21F0
2200
3E00
4100
4100
4100
81F8
ENDCHAR
STARTCHAR 01FD
ENCODING 509
SWIDTH 705 0
DWIDTH 12 0
BBX 10 14 1 0
BITMAP
0200
0400
0400
0000
2100
DE80
0C40
0840
0840
7FC0
8800
8400
8C00
F3C0
ENDCHAR
STARTCHAR 01FE
ENCODING 510
SWIDTH 588 0
DWIDTH 10 0
BBX 8 16 1 0
BITMAP
08
08
00
3D
42
82
85
85
89
89
91
A1
A1
C1
42
BC
ENDCHAR
STARTCHAR 01FF
ENCODING 511
SWIDTH 470 0
DWIDTH 8 0
BBX 6 14 1 0
BITMAP
08
10
10
00
20
5C
8C
8C
94
A4
A4
C4
84
F8
ENDCHAR
STARTCHAR 0200
ENCODING 512
SWIDTH 588 0
DWIDTH 10 0
BBX 9 16 0 0
BITMAP
1400
1400
0000
0800
0C00
0C00
1400
1200
1200
2200
2100
3F00
4100
4080
4080
8080
ENDCHAR
STARTCHAR 0201
ENCODING 513
SWIDTH 411 0
DWIDTH 7 0
BBX 5 14 1 0
BITMAP
A0
50
50
00
20
D8
08
08
08
78
88
88
88
F8
ENDCHAR
STARTCHAR 0202
ENCODING 514
SWIDTH 588 0
DWIDTH 10 0
BBX 9 16 0 0
BITMAP
1C00
1200
0000
0800
0C00
0C00
1400
1200
1200
2200
2100
3F00
4100
4080
4080
8080
ENDCHAR
STARTCHAR 0203
ENCODING 515
SWIDTH 411 0
DWIDTH 7 0
BBX 5 14 1 0
BITMAP
20
50
88
00
20
D8
08
08
08
78
88
88
88
F8
ENDCHAR
STARTCHAR 0204
ENCODING 516
SWIDTH 470 0
DWIDTH 8 0
BBX 7 16 1 0
BITMAP
28
28
00
FE
80
80
80
80
80
FC
80
80
80
80
80
FE
ENDCHAR
STARTCHAR 0205
ENCODING 517
SWIDTH 411 0
DWIDTH 7 0
BBX 6 14 1 0
BITMAP
90
50
50
00
20
58
88
84
84
FC
80
80
80
78
ENDCHAR
STARTCHAR 0206
ENCODING 518
SWIDTH 470 0
DWIDTH 8 0
BBX 7 16 1 0
BITMAP
38
44
00
FE
80
80
80
80
80
FC
80
80
80
80
80
FE
ENDCHAR
STARTCHAR 0207
ENCODING 519
SWIDTH 411 0
DWIDTH 7 0
BBX 6 14 1 0
BITMAP
30
48
48
00
20
58
88
84
84
FC
80
80
80
78
ENDCHAR
STARTCHAR 0208
ENCODING 520
SWIDTH 176 0
DWIDTH 3 0
BBX 3 16 0 0
BITMAP
A0
A0
00
40
40
40
40
40
40
40
40
40
40
40
40
40
ENDCHAR
STARTCHAR 0209
ENCODING 521
SWIDTH 176 0
DWIDTH 3 0
BBX 4 14 -1 0
BITMAP
A0
90
50
00
00
20
20
20
20
20
20
20
20
20
ENDCHAR
STARTCHAR 020A
ENCODING 522
SWIDTH 176 0
DWIDTH 3 0
BBX 4 16 0 0
BITMAP
E0
90
00
40
40
40
40
40
40
40
40
40
40
40
40
40
ENDCHAR
STARTCHAR 020B
ENCODING 523
SWIDTH 176 0
DWIDTH 3 0
BBX 3 14 0 0
BITMAP
40
A0
A0
00
00
40
40
40
40
40
40
40
40
40
ENDCHAR
STARTCHAR 020C
ENCODING 524
SWIDTH 588 0
DWIDTH 10 0
BBX 8 16 1 0
BITMAP
28
28
00
3C
42
81
81
81
81
81
81
81
81
81
42
3C
ENDCHAR
STARTCHAR 020D
ENCODING 525
SWIDTH 470 0
DWIDTH 8 0
BBX 6 14 1 0
BITMAP
50
50
50
00
20
58
84
84
84
84
84
84
84
78
ENDCHAR
STARTCHAR 020E
ENCODING 526
SWIDTH 588 0
DWIDTH 10 0
BBX 8 16 1 0
BITMAP
18
24
00
3C
42
81
81
81
81
81
81
81
81
81
42
3C
ENDCHAR
STARTCHAR 020F
ENCODING 527
SWIDTH 470 0
DWIDTH 8 0
BBX 6 14 1 0
BITMAP
30
48
48
00
20
58
84
84
84
84
84
84
84
78
ENDCHAR
STARTCHAR 0210
ENCODING 528
SWIDTH 588 0
DWIDTH 10 0
BBX 8 16 1 0
BITMAP
50
28
00
78
86
82
82
82
82
8C
F0
88
84
82
82
81
ENDCHAR
STARTCHAR 0211
ENCODING 529
SWIDTH 294 0
DWIDTH 5 0
BBX 4 14 1 0
BITMAP
A0
A0
A0
00
00
F0
80
80
80
80
80
80
80
80
ENDCHAR
STARTCHAR 0212
ENCODING 530
SWIDTH 588 0
DWIDTH 10 0
BBX 8 16 1 0
BITMAP
38
44
00
78
86
82
82
82
82
8C
F0
88
84
82
82
81
ENDCHAR
STARTCHAR 0213
ENCODING 531
SWIDTH 294 0
DWIDTH 5 0
BBX 4 14 1 0
BITMAP
60
90
90
00
00
F0
80
80
80
80
80
80
80
80
ENDCHAR
STARTCHAR 0214
ENCODING 532
SWIDTH 588 0
DWIDTH 10 0
BBX 8 16 1 0
BITMAP
28
28
00
81
81
81
81
81
81
81
81
81
81
81
41
3E
ENDCHAR
STARTCHAR 0215
ENCODING 533
SWIDTH 470 0
DWIDTH 8 0
BBX 6 14 1 0
BITMAP
50
50
50
00
00
84
84
84
84
84
84
84
84
7C
ENDCHAR
STARTCHAR 0216
ENCODING 534
SWIDTH 588 0
DWIDTH 10 0
BBX 8 16 1 0
BITMAP
18
24
00
81
81
81
81
81
81
81
81
81
81
81
41
3E
ENDCHAR
STARTCHAR 0217
ENCODING 535
SWIDTH 470 0
DWIDTH 8 0
BBX 6 14 1 0
BITMAP
30
48
48
00
00
84
84
84
84
84
84
84
84
7C
ENDCHAR
STARTCHAR 0218
ENCODING 536
SWIDTH 411 0
DWIDTH 7 0
BBX 6 17 1 -4
BITMAP
78
80
80
80
80
80
70
08
04
04
04
04
F8
00
00
20
20
ENDCHAR
STARTCHAR 0219
ENCODING 537
SWIDTH 352 0
DWIDTH 6 0
BBX 5 13 1 -4
BITMAP
F0
80
80
80
70
08
08
08
F0
00
00
20
20
ENDCHAR
STARTCHAR 021A
ENCODING 538
SWIDTH 470 0
DWIDTH 8 0
BBX 8 17 0 -4
BITMAP
FF
08
08
08
08
08
08
08
08
08
08
08
08
00
00
08
08
ENDCHAR
STARTCHAR 021B
ENCODING 539
SWIDTH 294 0
DWIDTH 5 0
BBX 5 17 0 -4
BITMAP
20
20
40
40
F8
40
40
40
40
40
40
20
38
00
00
10
10
ENDCHAR
STARTCHAR 022A
ENCODING 554
SWIDTH 588 0
DWIDTH 10 0
BBX 8 17 1 0
BITMAP
3C
00
24
00
3C
42
81
81
81
81
81
81
81
81
81
42
3C
ENDCHAR
STARTCHAR 022B
ENCODING 555
SWIDTH 470 0
DWIDTH 8 0
BBX 6 14 1 0
BITMAP
78
48
00
00
20
58
84
84
84
84
84
84
84
78
ENDCHAR
STARTCHAR 022C
ENCODING 556
SWIDTH 588 0
DWIDTH 10 0
BBX 8 17 1 0
BITMAP
3C
32
4C
00
3C
42
81
81
81
81
81
81
81
81
81
42
3C
ENDCHAR
STARTCHAR 022D
ENCODING 557
SWIDTH 470 0
DWIDTH 8 0
BBX 6 14 1 0
BITMAP
78
78
00
00
20
58
84
84
84
84
84
84
84
78
ENDCHAR
STARTCHAR 0230
ENCODING 560
SWIDTH 588 0
DWIDTH 10 0
BBX 8 17 1 0
BITMAP
3C
00
10
00
3C
42
81
81
81
81
81
81
81
81
81
42
3C
ENDCHAR
STARTCHAR 0231
ENCODING 561
SWIDTH 470 0
DWIDTH 8 0
BBX 6 14 1 0
BITMAP
78
20
00
00
20
58
84
84
84
84
84
84
84
78
ENDCHAR
STARTCHAR 0232
ENCODING 562
SWIDTH 470 0
DWIDTH 8 0
BBX 8 15 0 0
BITMAP
3C
00
81
81
42
42
24
14
18
08
08
08
08
08
08
ENDCHAR
STARTCHAR 0233
ENCODING 563
SWIDTH 411 0
DWIDTH 7 0
BBX 7 16 0 -4
BITMAP
3C
00
00
82
82
44
44
24
28
28
18
10
10
10
20
20
ENDCHAR
STARTCHAR 0237
ENCODING 567
SWIDTH 176 0
DWIDTH 3 0
BBX 2 13 0 -4
BITMAP
40
40
40
40
40
40
40
40
40
40
40
80
80
ENDCHAR
STARTCHAR 0259
ENCODING 601
SWIDTH 411 0
DWIDTH 7 0
BBX 5 9 1 0
BITMAP
F0
08
08
08
F8
88
88
88
70
ENDCHAR
STARTCHAR 02BB
ENCODING 699
SWIDTH 411 0
DWIDTH 7 0
BBX 1 2 3 12
BITMAP
80
80
ENDCHAR
STARTCHAR 02BC
ENCODING 700
SWIDTH 411 0
DWIDTH 7 0
BBX 1 2 3 12
BITMAP
80
80
ENDCHAR
STARTCHAR 02BE
ENCODING 702
SWIDTH 411 0
DWIDTH 7 0
BBX 2 3 3 11
BITMAP
80
40
C0
ENDCHAR
STARTCHAR 02BF
ENCODING 703
SWIDTH 411 0
DWIDTH 7 0
BBX 1 3 2 11
BITMAP
80
80
80
ENDCHAR
STARTCHAR 02C6
ENCODING 710
SWIDTH 411 0
DWIDTH 7 0
BBX 4 3 3 11
BITMAP
20
60
90
ENDCHAR
STARTCHAR 02C7
ENCODING 711
SWIDTH 411 0
DWIDTH 7 0
BBX 4 3 3 11
BITMAP
90
50
60
ENDCHAR
STARTCHAR 02C8
ENCODING 712
SWIDTH 588 0
DWIDTH 10 0
BBX 1 4 5 10
BITMAP
80
80
80
80
ENDCHAR
STARTCHAR 02C9
ENCODING 713
SWIDTH 411 0
DWIDTH 7 0
BBX 5 1 1 12
BITMAP
F8
ENDCHAR
STARTCHAR 02CA
ENCODING 714
SWIDTH 411 0
DWIDTH 7 0
BBX 2 3 3 11
BITMAP
40
40
80
ENDCHAR
STARTCHAR 02CB
ENCODING 715
SWIDTH 411 0
DWIDTH 7 0
BBX 2 3 2 11
BITMAP
80
80
40
ENDCHAR
STARTCHAR 02CC
ENCODING 716
SWIDTH 588 0
DWIDTH 10 0
BBX 1 4 5 -4
BITMAP
80
80
80
80
ENDCHAR
STARTCHAR 02D8
ENCODING 728
SWIDTH 411 0
DWIDTH 7 0
BBX 4 3 3 11
BITMAP
90
90
70
ENDCHAR
STARTCHAR 02D9
ENCODING 729
SWIDTH 411 0
DWIDTH 7 0
BBX 1 1 5 12
BITMAP
80
ENDCHAR
STARTCHAR 02DA
ENCODING 730
SWIDTH 411 0
DWIDTH 7 0
BBX 3 3 4 11
BITMAP
C0
A0
E0
ENDCHAR
STARTCHAR 02DB
ENCODING 731
SWIDTH 411 0
DWIDTH 7 0
BBX 3 3 3 -3
BITMAP
40
80
E0
ENDCHAR
STARTCHAR 02DC
ENCODING 732
SWIDTH 411 0
DWIDTH 7 0
BBX 4 1 3 12
BITMAP
F0
ENDCHAR
STARTCHAR 02DD
ENCODING 733
SWIDTH 411 0
DWIDTH 7 0
BBX 3 3 4 11
BITMAP
A0
A0
A0
ENDCHAR
STARTCHAR 0300
ENCODING 768
SWIDTH 0 0
DWIDTH 0 0
BBX 2 3 3 11
BITMAP
80
40
40
ENDCHAR
STARTCHAR 0301
ENCODING 769
SWIDTH 0 0
DWIDTH 0 0
BBX 2 3 5 11
BITMAP
40
80
80
ENDCHAR
STARTCHAR 0302
ENCODING 770
SWIDTH 0 0
DWIDTH 0 0
BBX 4 3 3 11
BITMAP
20
60
90
ENDCHAR
STARTCHAR 0303
ENCODING 771
SWIDTH 0 0
DWIDTH 0 0
BBX 4 1 3 12
BITMAP
F0
ENDCHAR
STARTCHAR 0304
ENCODING 772
SWIDTH 0 0
DWIDTH 0 0
BBX 4 1 3 12
BITMAP
F0
ENDCHAR
STARTCHAR 0306
ENCODING 774
SWIDTH 0 0
DWIDTH 0 0
BBX 4 3 3 11
BITMAP
90
90
70
ENDCHAR
STARTCHAR 0307
ENCODING 775
SWIDTH 0 0
DWIDTH 0 0
BBX 1 1 5 12
BITMAP
80
ENDCHAR
STARTCHAR 0308
ENCODING 776
SWIDTH 0 0
DWIDTH 0 0
BBX 4 1 3 12
BITMAP
90
ENDCHAR
STARTCHAR 0309
ENCODING 777
SWIDTH 0 0
DWIDTH 0 0
BBX 3 3 4 11
BITMAP
C0
20
40
ENDCHAR
STARTCHAR 030A
ENCODING 778
SWIDTH 0 0
DWIDTH 0 0
BBX 3 3 4 11
BITMAP
C0
A0
E0
ENDCHAR
STARTCHAR 030B
ENCODING 779
SWIDTH 0 0
DWIDTH 0 0
BBX 3 3 4 11
BITMAP
A0
A0
A0
ENDCHAR
STARTCHAR 030C
ENCODING 780
SWIDTH 0 0
DWIDTH 0 0
BBX 4 3 3 11
BITMAP
90
50
60
ENDCHAR
STARTCHAR 030F
ENCODING 783
SWIDTH 0 0
DWIDTH 0 0
BBX 3 3 3 11
BITMAP
A0
A0
A0
ENDCHAR
STARTCHAR 0311
ENCODING 785
SWIDTH 0 0
DWIDTH 0 0
BBX 4 3 3 11
BITMAP
60
90
90
ENDCHAR
STARTCHAR 0312
ENCODING 786
SWIDTH 0 0
DWIDTH 0 0
BBX 1 2 5 12
BITMAP
80
80
ENDCHAR
STARTCHAR 031B
ENCODING 795
SWIDTH 0 0
DWIDTH 0 0
BBX 2 3 5 12
BITMAP
40
40
C0
ENDCHAR
STARTCHAR 0323
ENCODING 803
SWIDTH 0 0
DWIDTH 0 0
BBX 1 1 5 -3
BITMAP
80
ENDCHAR
STARTCHAR 0324
ENCODING 804
SWIDTH 0 0
DWIDTH 0 0
BBX 4 1 3 -3
BITMAP
90
ENDCHAR
STARTCHAR 0326
ENCODING 806
SWIDTH 0 0
DWIDTH 0 0
BBX 1 2 5 -4
BITMAP
80
80
ENDCHAR
STARTCHAR 0327
ENCODING 807
SWIDTH 0 0
DWIDTH 0 0
BBX 3 3 4 -3
BITMAP
40
20
E0
ENDCHAR
STARTCHAR 0328
ENCODING 808
SWIDTH 0 0
DWIDTH 0 0
BBX 3 3 3 -3
BITMAP
40
80
E0
ENDCHAR
STARTCHAR 032E
ENCODING 814
SWIDTH 0 0
DWIDTH 0 0
BBX 4 2 3 -3
BITMAP
90
F0
ENDCHAR
STARTCHAR 0331
ENCODING 817
SWIDTH 0 0
DWIDTH 0 0
BBX 4 1 3 -3
BITMAP
F0
ENDCHAR
STARTCHAR 0394
ENCODING 916
SWIDTH 588 0
DWIDTH 10 0
BBX 9 13 0 0
BITMAP
0800
0C00
0C00
1400
1200
1200
2200
2100
2100
4100
4080
4080
FF80
ENDCHAR
STARTCHAR 03A9
ENCODING 937
SWIDTH 588 0
DWIDTH 10 0
BBX 8 13 1 0
BITMAP
3C
42
81
81
81
81
81
81
81
81
42
42
E7
ENDCHAR
STARTCHAR 03BC
ENCODING 956
SWIDTH 470 0
DWIDTH 8 0
BBX 6 13 1 -4
BITMAP
84
84
84
84
84
84
84
84
FC
80
80
80
80
ENDCHAR
STARTCHAR 03C0
ENCODING 960
SWIDTH 529 0
DWIDTH 9 0
BBX 9 9 0 0
BITMAP
FF00
4200
4200
4200
4200
4200
4200
4200
4180
ENDCHAR
STARTCHAR 1E08
ENCODING 7688
SWIDTH 470 0
DWIDTH 8 0
BBX 7 19 1 -3
BITMAP
08
08
00
3E
40
80
80
80
80
80
80
80
80
80
40
36
08
04
1C
ENDCHAR
STARTCHAR 1E09
ENCODING 7689
SWIDTH 352 0
DWIDTH 6 0
BBX 5 17 1 -3
BITMAP
10
10
20
00
10
68
80
80
80
80
80
80
80
58
20
10
70
ENDCHAR
STARTCHAR 1E0C
ENCODING 7692
SWIDTH 588 0
DWIDTH 10 0
BBX 8 16 1 -3
BITMAP
78
84
82
81
81
81
81
81
81
81
82
82
FC
00
00
10
ENDCHAR
STARTCHAR 1E0D
ENCODING 7693
SWIDTH 470 0
DWIDTH 8 0
BBX 6 17 1 -3
BITMAP
04
04
04
04
14
6C
84
84
84
84
84
84
84
7C
00
00
20
ENDCHAR
STARTCHAR 1E0E
ENCODING 7694
SWIDTH 588 0
DWIDTH 10 0
BBX 8 15 1 -2
BITMAP
78
84
82
81
81
81
81
81
81
81
82
82
FC
00
78
ENDCHAR
STARTCHAR 1E0F
ENCODING 7695
SWIDTH 470 0
DWIDTH 8 0
BBX 6 16 1 -2
BITMAP
04
04
04
04
14
6C
84
84
84
84
84
84
84
7C
00
78
ENDCHAR
STARTCHAR 1E14
ENCODING 7700
SWIDTH 470 0
DWIDTH 8 0
BBX 7 18 1 0
BITMAP
20
10
00
3C
00
FE
80
80
80
80
80
FC
80
80
80
80
80
FE
ENDCHAR
STARTCHAR 1E15
ENCODING 7701
SWIDTH 411 0
DWIDTH 7 0
BBX 6 16 1 0
BITMAP
40
20
00
78
00
00
20
58
88
84
84
FC
80
80
80
78
ENDCHAR
STARTCHAR 1E16
ENCODING 7702
SWIDTH 470 0
DWIDTH 8 0
BBX 7 18 1 0
BITMAP
08
10
00
3C
00
FE
80
80
80
80
80
FC
80
80
80
80
80
FE
ENDCHAR
STARTCHAR 1E17
ENCODING 7703
SWIDTH 411 0
DWIDTH 7 0
BBX 6 16 1 0
BITMAP
10
10
20
78
00
00
20
58
88
84
84
FC
80
80
80
78
ENDCHAR
STARTCHAR 1E1C
ENCODING 7708
SWIDTH 470 0
DWIDTH 8 0
BBX 7 19 1 -3
BITMAP
44
38
00
FE
80
80
80
80
80
FC
80
80
80
80
80
FE
10
08
3C
ENDCHAR
STARTCHAR 1E1D
ENCODING 7709
SWIDTH 411 0
DWIDTH 7 0
BBX 6 17 1 -3
BITMAP
48
48
70
00
20
58
88
84
84
FC
80
80
80
58
20
10
70
ENDCHAR
STARTCHAR 1E20
ENCODING 7712
SWIDTH 529 0
DWIDTH 9 0
BBX 7 15 1 0
BITMAP
3C
00
1E
60
80
80
80
80
80
82
82
82
82
42
3E
ENDCHAR
STARTCHAR 1E21
ENCODING 7713
SWIDTH 470 0
DWIDTH 8 0
BBX 6 16 1 -4
BITMAP
78
00
10
6C
84
84
84
84
84
84
84
7C
04
04
08
F0
ENDCHAR
STARTCHAR 1E24
ENCODING 7716
SWIDTH 588 0
DWIDTH 10 0
BBX 8 16 1 -3
BITMAP
81
81
81
81
81
81
FF
81
81
81
81
81
81
00
00
08
ENDCHAR
STARTCHAR 1E25
ENCODING 7717
SWIDTH 470 0
DWIDTH 8 0
BBX 6 17 1 -3
BITMAP
80
80
80
80
90
E8
84
84
84
84
84
84
84
84
00
00
30
ENDCHAR
STARTCHAR 1E2A
ENCODING 7722
SWIDTH 588 0
DWIDTH 10 0
BBX 8 16 1 -3
BITMAP
81
81
81
81
81
81
FF
81
81
81
81
81
81
00
24
3C
ENDCHAR
STARTCHAR 1E2B
ENCODING 7723
SWIDTH 470 0
DWIDTH 8 0
BBX 6 17 1 -3
BITMAP
80
80
80
80
90
E8
84
84
84
84
84
84
84
84
00
48
78
ENDCHAR
STARTCHAR 1E2E
ENCODING 7726
SWIDTH 176 0
DWIDTH 3 0
BBX 4 18 0 0
BITMAP
20
40
00
90
00
40
40
40
40
40
40
40
40
40
40
40
40
40
ENDCHAR
STARTCHAR 1E2F
ENCODING 7727
SWIDTH 176 0
DWIDTH 3 0
BBX 3 16 0 0
BITMAP
20
40
00
A0
00
00
00
40
40
40
40
40
40
40
40
40
ENDCHAR
STARTCHAR 1E36
ENCODING 7734
SWIDTH 470 0
DWIDTH 8 0
BBX 7 16 1 -3
BITMAP
80
80
80
80
80
80
80
80
80
80
80
80
FE
00
00
10
ENDCHAR
STARTCHAR 1E37
ENCODING 7735
SWIDTH 176 0
DWIDTH 3 0
BBX 1 17 1 -3
BITMAP
80
80
80
80
80
80
80
80
80
80
80
80
80
80
00
00
80
ENDCHAR
STARTCHAR 1E3A
ENCODING 7738
SWIDTH 470 0
DWIDTH 8 0
BBX 7 15 1 -2
BITMAP
80
80
80
80
80
80
80
80
80
80
80
80
FE
00
7C
ENDCHAR
STARTCHAR 1E3B
ENCODING 7739
SWIDTH 176 0
DWIDTH 3 0
BBX 3 16 0 -2
BITMAP
40
40
40
40
40
40
40
40
40
40
40
40
40
40
00
E0
ENDCHAR
STARTCHAR 1E42
ENCODING 7746
SWIDTH 764 0
DWIDTH 13 0
BBX 10 16 1 -3
BITMAP
8040
C040
C040
A0C0
A0C0
A140
9140
9140
8A40
8A40
8440
8040
8040
0000
0000
0400
ENDCHAR
STARTCHAR 1E43
ENCODING 7747
SWIDTH 705 0
DWIDTH 12 0
BBX 10 12 1 -3
BITMAP
FBC0
8440
8440
8440
8440
8440
8440
8440
8440
0000
0000
0400
ENDCHAR
STARTCHAR 1E44
ENCODING 7748
SWIDTH 647 0
DWIDTH 11 0
BBX 8 15 1 0
BITMAP
08
00
81
C1
C1
A1
91
91
89
89
85
85
83
81
81
ENDCHAR
STARTCHAR 1E45
ENCODING 7749
SWIDTH 470 0
DWIDTH 8 0
BBX 6 13 1 0
BITMAP
30
00
00
10
E8
84
84
84
84
84
84
84
84
ENDCHAR
STARTCHAR 1E46
ENCODING 7750
SWIDTH 647 0
DWIDTH 11 0
BBX 8 16 1 -3
BITMAP
81
C1
C1
A1
91
91
89
89
85
85
83
81
81
00
00
08
ENDCHAR
STARTCHAR 1E47
ENCODING 7751
SWIDTH 470 0
DWIDTH 8 0
BBX 6 12 1 -3
BITMAP
F8
84
84
84
84
84
84
84
84
00
00
30
ENDCHAR
STARTCHAR 1E48
ENCODING 7752
SWIDTH 647 0
DWIDTH 11 0
BBX 8 15 1 -2
BITMAP
81
C1
C1
A1
91
91
89
89
85
85
83
81
81
00
3C
ENDCHAR
STARTCHAR 1E49
ENCODING 7753
SWIDTH 470 0
DWIDTH 8 0
BBX 6 11 1 -2
BITMAP
F8
84
84
84
84
84
84
84
84
00
78
ENDCHAR
STARTCHAR 1E4C
ENCODING 7756
SWIDTH 588 0
DWIDTH 10 0
BBX 8 18 1 0
BITMAP
08
08
32
4C
00
3C
42
81
81
81
81
81
81
81
81
81
42
3C
ENDCHAR
STARTCHAR 1E4D
ENCODING 7757
SWIDTH 470 0
DWIDTH 8 0
BBX 6 16 1 0
BITMAP
10
10
00
78
00
00
20
58
84
84
84
84
84
84
84
78
ENDCHAR
STARTCHAR 1E4E
ENCODING 7758
SWIDTH 588 0
DWIDTH 10 0
BBX 8 17 1 0
BITMAP
24
32
4C
00
3C
42
81
81
81
81
81
81
81
81
81
42
3C
ENDCHAR
STARTCHAR 1E4F
ENCODING 7759
SWIDTH 470 0
DWIDTH 8 0
BBX 6 15 1 0
BITMAP
48
00
78
00
00
20
58
84
84
84
84
84
84
84
78
ENDCHAR
STARTCHAR 1E50
ENCODING 7760
SWIDTH 588 0
DWIDTH 10 0
BBX 8 18 1 0
BITMAP
30
10
00
3C
00
3C
42
81
81
81
81
81
81
81
81
81
42
3C
ENDCHAR
STARTCHAR 1E51
ENCODING 7761
SWIDTH 470 0
DWIDTH 8 0
BBX 6 16 1 0
BITMAP
40
20
00
78
00
00
20
58
84
84
84
84
84
84
84
78
ENDCHAR
STARTCHAR 1E52
ENCODING 7762
SWIDTH 588 0
DWIDTH 10 0
BBX 8 18 1 0
BITMAP
08
08
00
3C
00
3C
42
81
81
81
81
81
81
81
81
81
42
3C
ENDCHAR
STARTCHAR 1E53
ENCODING 7763
SWIDTH 470 0
DWIDTH 8 0
BBX 6 16 1 0
BITMAP
10
10
00
78
00
00
20
58
84
84
84
84
84
84
84
78
ENDCHAR
STARTCHAR 1E5A
ENCODING 7770
SWIDTH 588 0
DWIDTH 10 0
BBX 8 16 1 -3
BITMAP
78
86
82
82
82
82
8C
F0
88
84
82
82
81
00
00
08
ENDCHAR
STARTCHAR 1E5B
ENCODING 7771
SWIDTH 294 0
DWIDTH 5 0
BBX 4 12 1 -3
BITMAP
F0
80
80
80
80
80
80
80
80
00
00
80
ENDCHAR
STARTCHAR 1E5E
ENCODING 7774
SWIDTH 588 0
DWIDTH 10 0
BBX 8 15 1 -2
BITMAP
78
86
82
82
82
82
8C
F0
88
84
82
82
81
00
3C
ENDCHAR
STARTCHAR 1E5F
ENCODING 7775
SWIDTH 294 0
DWIDTH 5 0
BBX 5 11 0 -2
BITMAP
78
40
40
40
40
40
40
40
40
00
E0
ENDCHAR
STARTCHAR 1E60
ENCODING 7776
SWIDTH 411 0
DWIDTH 7 0
BBX 6 15 1 0
BITMAP
20
00
78
80
80
80
80
80
70
08
04
04
04
04
F8
ENDCHAR
STARTCHAR 1E61
ENCODING 7777
SWIDTH 352 0
DWIDTH 6 0
BBX 5 13 1 0
BITMAP
20
00
00
20
D0
80
80
80
70
08
08
08
F0
ENDCHAR
STARTCHAR 1E62
ENCODING 7778
SWIDTH 411 0
DWIDTH 7 0
BBX 6 16 1 -3
BITMAP
78
80
80
80
80
80
70
08
04
04
04
04
F8
00
00
20
ENDCHAR
STARTCHAR 1E63
ENCODING 7779
SWIDTH 352 0
DWIDTH 6 0
BBX 5 12 1 -3
BITMAP
F0
80
80
80
70
08
08
08
F0
00
00
20
ENDCHAR
STARTCHAR 1E64
ENCODING 7780
SWIDTH 411 0
DWIDTH 7 0
BBX 6 17 1 0
BITMAP
40
10
10
20
78
80
80
80
80
80
70
08
04
04
04
04
F8
ENDCHAR
STARTCHAR 1E65
ENCODING 7781
SWIDTH 352 0
DWIDTH 6 0
BBX 5 14 1 0
BITMAP
50
20
20
00
20
D0
80
80
80
70
08
08
08
F0
ENDCHAR
STARTCHAR 1E66
ENCODING 7782
SWIDTH 411 0
DWIDTH 7 0
BBX 6 17 1 0
BITMAP
20
48
30
00
78
80
80
80
80
80
70
08
04
04
04
04
F8
ENDCHAR
STARTCHAR 1E67
ENCODING 7783
SWIDTH 352 0
DWIDTH 6 0
BBX 5 15 1 0
BITMAP
20
90
50
60
00
20
D0
80
80
80
70
08
08
08
F0
ENDCHAR
STARTCHAR 1E68
ENCODING 7784
SWIDTH 411 0
DWIDTH 7 0
BBX 6 18 1 -3
BITMAP
20
00
78
80
80
80
80
80
70
08
04
04
04
04
F8
00
00
20
ENDCHAR
STARTCHAR 1E69
ENCODING 7785
SWIDTH 352 0
DWIDTH 6 0
BBX 5 16 1 -3
BITMAP
20
00
00
20
D0
80
80
80
70
08
08
08
F0
00
00
20
ENDCHAR
STARTCHAR 1E6C
ENCODING 7788
SWIDTH 470 0
DWIDTH 8 0
BBX 8 16 0 -3
BITMAP
FF
08
08
08
08
08
08
08
08
08
08
08
08
00
00
08
ENDCHAR
STARTCHAR 1E6D
ENCODING 7789
SWIDTH 294 0
DWIDTH 5 0
BBX 5 16 0 -3
BITMAP
20
20
40
40
F8
40
40
40
40
40
40
20
38
00
00
10
ENDCHAR
STARTCHAR 1E6E
ENCODING 7790
SWIDTH 470 0
DWIDTH 8 0
BBX 8 15 0 -2
BITMAP
FF
08
08
08
08
08
08
08
08
08
08
08
08
00
3C
ENDCHAR
STARTCHAR 1E6F
ENCODING 7791
SWIDTH 294 0
DWIDTH 5 0
BBX 5 15 0 -2
BITMAP
20
20
40
40
F8
40
40
40
40
40
40
20
38
00
78
ENDCHAR
STARTCHAR 1E78
ENCODING 7800
SWIDTH 588 0
DWIDTH 10 0
BBX 8 18 1 0
BITMAP
0C
08
32
4C
00
81
81
81
81
81
81
81
81
81
81
81
41
3E
ENDCHAR
STARTCHAR 1E79
ENCODING 7801
SWIDTH 470 0
DWIDTH 8 0
BBX 6 16 1 0
BITMAP
10
10
00
78
00
00
00
84
84
84
84
84
84
84
84
7C
ENDCHAR
STARTCHAR 1E7A
ENCODING 7802
SWIDTH 588 0
DWIDTH 10 0
BBX 8 17 1 0
BITMAP
24
00
3C
00
81
81
81
81
81
81
81
81
81
81
81
41
3E
ENDCHAR
STARTCHAR 1E7B
ENCODING 7803
SWIDTH 470 0
DWIDTH 8 0
BBX 6 15 1 0
BITMAP
48
00
78
00
00
00
84
84
84
84
84
84
84
84
7C
ENDCHAR
STARTCHAR 1E80
ENCODING 7808
SWIDTH 882 0
DWIDTH 15 0
BBX 15 16 0 0
BITMAP
0200
0100
0000
8102
4102
4284
4284
4284
2284
2448
2448
2448
1450
1830
1830
0830
ENDCHAR
STARTCHAR 1E81
ENCODING 7809
SWIDTH 705 0
DWIDTH 12 0
BBX 12 14 0 0
BITMAP
0800
0400
0400
0000
0000
8210
4610
4520
4920
4920
2920
28C0
30C0
1080
ENDCHAR
STARTCHAR 1E82
ENCODING 7810
SWIDTH 882 0
DWIDTH 15 0
BBX 15 16 0 0
BITMAP
0080
0100
0000
8102
4102
4284
4284
4284
2284
2448
2448
2448
1450
1830
1830
0830
ENDCHAR
STARTCHAR 1E83
ENCODING 7811
SWIDTH 705 0
DWIDTH 12 0
BBX 12 14 0 0
BITMAP
0100
0200
0200
0000
0000
8210
4610
4520
4920
4920
2920
28C0
30C0
1080
ENDCHAR
STARTCHAR 1E84
ENCODING 7812
SWIDTH 882 0
DWIDTH 15 0
BBX 15 15 0 0
BITMAP
0640
0000
8102
4102
4284
4284
4284
2284
2448
2448
2448
1450
1830
1830
0830
ENDCHAR
STARTCHAR 1E85
ENCODING 7813
SWIDTH 705 0
DWIDTH 12 0
BBX 12 13 0 0
BITMAP
0900
0000
0000
0000
8210
4610
4520
4920
4920
2920
28C0
30C0
1080
ENDCHAR
STARTCHAR 1E8E
ENCODING 7822
SWIDTH 470 0
DWIDTH 8 0
BBX 8 15 0 0
BITMAP
08
00
81
81
42
42
24
14
18
08
08
08
08
08
08
ENDCHAR
STARTCHAR 1E8F
ENCODING 7823
SWIDTH 411 0
DWIDTH 7 0
BBX 7 17 0 -4
BITMAP
10
00
00
00
82
82
44
44
24
28
28
18
10
10
10
20
20
ENDCHAR
STARTCHAR 1E92
ENCODING 7826
SWIDTH 470 0
DWIDTH 8 0
BBX 8 16 0 -3
BITMAP
7F
02
02
04
04
08
08
10
10
20
40
40
FF
00
00
08
ENDCHAR
STARTCHAR 1E93
ENCODING 7827
SWIDTH 352 0
DWIDTH 6 0
BBX 6 12 0 -3
BITMAP
7C
08
08
10
10
20
40
40
FC
00
00
10
ENDCHAR
STARTCHAR 1E97
ENCODING 7831
SWIDTH 294 0
DWIDTH 5 0
BBX 5 15 0 0
BITMAP
90
00
20
20
40
40
F8
40
40
40
40
40
40
20
38
ENDCHAR
STARTCHAR 1E9E
ENCODING 7838
SWIDTH 588 0
DWIDTH 10 0
BBX 8 13 1 0
BITMAP
3C
42
82
84
88
88
9E
81
81
81
81
81
BE
ENDCHAR
STARTCHAR 1EA0
ENCODING 7840
SWIDTH 588 0
DWIDTH 10 0
BBX 9 16 0 -3
BITMAP
0800
0C00
0C00
1400
1200
1200
2200
2100
3F00
4100
4080
4080
8080
0000
0000
0800
ENDCHAR
STARTCHAR 1EA1
ENCODING 7841
SWIDTH 411 0
DWIDTH 7 0
BBX 5 12 1 -3
BITMAP
F8
08
08
08
78
88
88
88
F8
00
00
20
ENDCHAR
STARTCHAR 1EA2
ENCODING 7842
SWIDTH 588 0
DWIDTH 10 0
BBX 9 16 0 0
BITMAP
1C00
0400
0000
0800
0C00
0C00
1400
1200
1200
2200
2100
3F00
4100
4080
4080
8080
ENDCHAR
STARTCHAR 1EA3
ENCODING 7843
SWIDTH 411 0
DWIDTH 7 0
BBX 5 14 1 0
BITMAP
70
10
20
00
20
D8
08
08
08
78
88
88
88
F8
ENDCHAR
STARTCHAR 1EA4
ENCODING 7844
SWIDTH 588 0
DWIDTH 10 0
BBX 9 18 0 0
BITMAP
0100
0100
0E00
1400
0200
0800
0C00
0C00
1400
1200
1200
2200
2100
3F00
4100
4080
4080
8080
ENDCHAR
STARTCHAR 1EA5
ENCODING 7845
SWIDTH 411 0
DWIDTH 7 0
BBX 6 16 1 0
BITMAP
04
08
20
50
50
00
20
D8
08
08
08
78
88
88
88
F8
ENDCHAR
STARTCHAR 1EA6
ENCODING 7846
SWIDTH 588 0
DWIDTH 10 0
BBX 9 18 0 0
BITMAP
0400
0200
0E00
1200
0000
0800
0C00
0C00
1400
1200
1200
2200
2100
3F00
4100
4080
4080
8080
ENDCHAR
STARTCHAR 1EA7
ENCODING 7847
SWIDTH 411 0
DWIDTH 7 0
BBX 5 16 1 0
BITMAP
10
10
28
50
50
00
20
D8
08
08
08
78
88
88
88
F8
ENDCHAR
STARTCHAR 1EA8
ENCODING 7848
SWIDTH 588 0
DWIDTH 10 0
BBX 9 18 0 0
BITMAP
0600
0100
0E00
1400
0200
0800
0C00
0C00
1400
1200
1200
2200
2100
3F00
4100
4080
4080
8080
ENDCHAR
STARTCHAR 1EA9
ENCODING 7849
SWIDTH 411 0
DWIDTH 7 0
BBX 6 16 1 0
BITMAP
1C
04
28
50
50
00
20
D8
08
08
08
78
88
88
88
F8
ENDCHAR
STARTCHAR 1EAA
ENCODING 7850
SWIDTH 588 0
DWIDTH 10 0
BBX 9 18 0 0
BITMAP
1A00
2400
0C00
1400
0200
0800
0C00
0C00
1400
1200
1200
2200
2100
3F00
4100
4080
4080
8080
ENDCHAR
STARTCHAR 1EAB
ENCODING 7851
SWIDTH 411 0
DWIDTH 7 0
BBX 5 15 1 0
BITMAP
F8
20
50
50
00
20
D8
08
08
08
78
88
88
88
F8
ENDCHAR
STARTCHAR 1EAC
ENCODING 7852
SWIDTH 588 0
DWIDTH 10 0
BBX 9 19 0 -3
BITMAP
0C00
1400
0200
0800
0C00
0C00
1400
1200
1200
2200
2100
3F00
4100
4080
4080
8080
0000
0000
0800
ENDCHAR
STARTCHAR 1EAD
ENCODING 7853
SWIDTH 411 0
DWIDTH 7 0
BBX 5 17 1 -3
BITMAP
20
50
50
00
20
D8
08
08
08
78
88
88
88
F8
00
00
20
ENDCHAR
STARTCHAR 1EAE
ENCODING 7854
SWIDTH 588 0
DWIDTH 10 0
BBX 9 18 0 0
BITMAP
0400
0400
1200
1E00
0000
0800
0C00
0C00
1400
1200
1200
2200
2100
3F00
4100
4080
4080
8080
ENDCHAR
STARTCHAR 1EAF
ENCODING 7855
SWIDTH 411 0
DWIDTH 7 0
BBX 5 16 1 0
BITMAP
10
10
A8
48
70
00
20
D8
08
08
08
78
88
88
88
F8
ENDCHAR
STARTCHAR 1EB0
ENCODING 7856
SWIDTH 588 0
DWIDTH 10 0
BBX 9 18 0 0
BITMAP
1000
0800
1200
1E00
0000
0800
0C00
0C00
1400
1200
1200
2200
2100
3F00
4100
4080
4080
8080
ENDCHAR
STARTCHAR 1EB1
ENCODING 7857
SWIDTH 411 0
DWIDTH 7 0
BBX 5 16 1 0
BITMAP
40
20
88
48
70
00
20
D8
08
08
08
78
88
88
88
F8
ENDCHAR
STARTCHAR 1EB2
ENCODING 7858
SWIDTH 588 0
DWIDTH 10 0
BBX 9 18 0 0
BITMAP
1C00
0400
1200
1E00
0000
0800
0C00
0C00
1400
1200
1200
2200
2100
3F00
4100
4080
4080
8080
ENDCHAR
STARTCHAR 1EB3
ENCODING 7859
SWIDTH 411 0
DWIDTH 7 0
BBX 5 16 1 0
BITMAP
70
10
A8
48
70
00
20
D8
08
08
08
78
88
88
88
F8
ENDCHAR
STARTCHAR 1EB4
ENCODING 7860
SWIDTH 588 0
DWIDTH 10 0
BBX 9 18 0 0
BITMAP
1A00
2400
1200
1E00
0000
0800
0C00
0C00
1400
1200
1200
2200
2100
3F00
4100
4080
4080
8080
ENDCHAR
STARTCHAR 1EB5
ENCODING 7861
SWIDTH 411 0
DWIDTH 7 0
BBX 5 15 1 0
BITMAP
F8
88
48
70
00
20
D8
08
08
08
78
88
88
88
F8
ENDCHAR
STARTCHAR 1EB6
ENCODING 7862
SWIDTH 588 0
DWIDTH 10 0
BBX 9 19 0 -3
BITMAP
1200
1E00
0000
0800
0C00
0C00
1400
1200
1200
2200
2100
3F00
4100
4080
4080
8080
0000
0000
0800
ENDCHAR
STARTCHAR 1EB7
ENCODING 7863
SWIDTH 411 0
DWIDTH 7 0
BBX 5 17 1 -3
BITMAP
88
48
70
00
20
D8
08
08
08
78
88
88
88
F8
00
00
20
ENDCHAR
STARTCHAR 1EB8
ENCODING 7864
SWIDTH 470 0
DWIDTH 8 0
BBX 7 16 1 -3
BITMAP
FE
80
80
80
80
80
FC
80
80
80
80
80
FE
00
00
10
ENDCHAR
STARTCHAR 1EB9
ENCODING 7865
SWIDTH 411 0
DWIDTH 7 0
BBX 6 12 1 -3
BITMAP
78
88
84
84
FC
80
80
80
78
00
00
20
ENDCHAR
STARTCHAR 1EBA
ENCODING 7866
SWIDTH 470 0
DWIDTH 8 0
BBX 7 16 1 0
BITMAP
38
08
10
FE
80
80
80
80
80
FC
80
80
80
80
80
FE
ENDCHAR
STARTCHAR 1EBB
ENCODING 7867
SWIDTH 411 0
DWIDTH 7 0
BBX 6 14 1 0
BITMAP
30
10
20
00
20
58
88
84
84
FC
80
80
80
78
ENDCHAR
STARTCHAR 1EBC
ENCODING 7868
SWIDTH 470 0
DWIDTH 8 0
BBX 7 16 1 0
BITMAP
34
48
00
FE
80
80
80
80
80
FC
80
80
80
80
80
FE
ENDCHAR
STARTCHAR 1EBD
ENCODING 7869
SWIDTH 411 0
DWIDTH 7 0
BBX 6 13 1 0
BITMAP
68
10
00
20
58
88
84
84
FC
80
80
80
78
ENDCHAR
STARTCHAR 1EBE
ENCODING 7870
SWIDTH 470 0
DWIDTH 8 0
BBX 7 18 1 0
BITMAP
02
02
14
28
04
FE
80
80
80
80
80
FC
80
80
80
80
80
FE
ENDCHAR
STARTCHAR 1EBF
ENCODING 7871
SWIDTH 411 0
DWIDTH 7 0
BBX 6 16 1 0
BITMAP
04
08
20
30
50
08
20
58
88
84
84
FC
80
80
80
78
ENDCHAR
STARTCHAR 1EC0
ENCODING 7872
SWIDTH 470 0
DWIDTH 8 0
BBX 7 18 1 0
BITMAP
08
04
1C
28
04
FE
80
80
80
80
80
FC
80
80
80
80
80
FE
ENDCHAR
STARTCHAR 1EC1
ENCODING 7873
SWIDTH 411 0
DWIDTH 7 0
BBX 6 16 1 0
BITMAP
10
08
20
30
50
08
20
58
88
84
84
FC
80
80
80
78
ENDCHAR
STARTCHAR 1EC2
ENCODING 7874
SWIDTH 470 0
DWIDTH 8 0
BBX 7 18 1 0
BITMAP
0C
02
14
28
04
FE
80
80
80
80
80
FC
80
80
80
80
80
FE
ENDCHAR
STARTCHAR 1EC3
ENCODING 7875
SWIDTH 411 0
DWIDTH 7 0
BBX 6 16 1 0
BITMAP
1C
04
28
30
50
08
20
58
88
84
84
FC
80
80
80
78
ENDCHAR
STARTCHAR 1EC4
ENCODING 7876
SWIDTH 470 0
DWIDTH 8 0
BBX 7 18 1 0
BITMAP
34
48
10
28
04
FE
80
80
80
80
80
FC
80
80
80
80
80
FE
ENDCHAR
STARTCHAR 1EC5
ENCODING 7877
SWIDTH 411 0
DWIDTH 7 0
BBX 6 15 1 0
BITMAP
F8
20
30
50
08
20
58
88
84
84
FC
80
80
80
78
ENDCHAR
STARTCHAR 1EC6
ENCODING 7878
SWIDTH 470 0
DWIDTH 8 0
BBX 7 19 1 -3
BITMAP
10
28
04
FE
80
80
80
80
80
FC
80
80
80
80
80
FE
00
00
10
ENDCHAR
STARTCHAR 1EC7
ENCODING 7879
SWIDTH 411 0
DWIDTH 7 0
BBX 6 17 1 -3
BITMAP
20
30
50
08
20
58
88
84
84
FC
80
80
80
78
00
00
20
ENDCHAR
STARTCHAR 1EC8
ENCODING 7880
SWIDTH 176 0
DWIDTH 3 0
BBX 3 16 0 0
BITMAP
E0
20
40
40
40
40
40
40
40
40
40
40
40
40
40
40
ENDCHAR
STARTCHAR 1EC9
ENCODING 7881
SWIDTH 176 0
DWIDTH 3 0
BBX 3 14 0 0
BITMAP
E0
20
40
00
00
40
40
40
40
40
40
40
40
40
ENDCHAR
STARTCHAR 1ECA
ENCODING 7882
SWIDTH 176 0
DWIDTH 3 0
BBX 1 16 1 -3
BITMAP
80
80
80
80
80
80
80
80
80
80
80
80
80
00
00
80
ENDCHAR
STARTCHAR 1ECB
ENCODING 7883
SWIDTH 176 0
DWIDTH 3 0
BBX 1 16 1 -3
BITMAP
80
00
00
00
80
80
80
80
80
80
80
80
80
00
00
80
ENDCHAR
STARTCHAR 1ECC
ENCODING 7884
SWIDTH 588 0
DWIDTH 10 0
BBX 8 16 1 -3
BITMAP
3C
42
81
81
81
81
81
81
81
81
81
42
3C
00
00
10
ENDCHAR
STARTCHAR 1ECD
ENCODING 7885
SWIDTH 470 0
DWIDTH 8 0
BBX 6 12 1 -3
BITMAP
78
84
84
84
84
84
84
84
78
00
00
20
ENDCHAR
STARTCHAR 1ECE
ENCODING 7886
SWIDTH 588 0
DWIDTH 10 0
BBX 8 16 1 0
BITMAP
3C
08
00
3C
42
81
81
81
81
81
81
81
81
81
42
3C
ENDCHAR
STARTCHAR 1ECF
ENCODING 7887
SWIDTH 470 0
DWIDTH 8 0
BBX 6 14 1 0
BITMAP
30
08
10
00
20
58
84
84
84
84
84
84
84
78
ENDCHAR
STARTCHAR 1ED0
ENCODING 7888
SWIDTH 588 0
DWIDTH 10 0
BBX 8 18 1 0
BITMAP
02
02
1C
24
00
3C
42
81
81
81
81
81
81
81
81
81
42
3C
ENDCHAR
STARTCHAR 1ED1
ENCODING 7889
SWIDTH 470 0
DWIDTH 8 0
BBX 6 16 1 0
BITMAP
04
04
28
30
48
00
20
58
84
84
84
84
84
84
84
78
ENDCHAR
STARTCHAR 1ED2
ENCODING 7890
SWIDTH 588 0
DWIDTH 10 0
BBX 8 18 1 0
BITMAP
08
04
1C
24
00
3C
42
81
81
81
81
81
81
81
81
81
42
3C
ENDCHAR
STARTCHAR 1ED3
ENCODING 7891
SWIDTH 470 0
DWIDTH 8 0
BBX 6 16 1 0
BITMAP
10
08
20
30
48
00
20
58
84
84
84
84
84
84
84
78
ENDCHAR
STARTCHAR 1ED4
ENCODING 7892
SWIDTH 588 0
DWIDTH 10 0
BBX 8 18 1 0
BITMAP
0C
02
1C
24
00
3C
42
81
81
81
81
81
81
81
81
81
42
3C
ENDCHAR
STARTCHAR 1ED5
ENCODING 7893
SWIDTH 470 0
DWIDTH 8 0
BBX 6 16 1 0
BITMAP
1C
04
28
30
48
00
20
58
84
84
84
84
84
84
84
78
ENDCHAR
STARTCHAR 1ED6
ENCODING 7894
SWIDTH 588 0
DWIDTH 10 0
BBX 8 18 1 0
BITMAP
34
48
18
24
00
3C
42
81
81
81
81
81
81
81
81
81
42
3C
ENDCHAR
STARTCHAR 1ED7
ENCODING 7895
SWIDTH 470 0
DWIDTH 8 0
BBX 6 15 1 0
BITMAP
F8
20
30
48
00
20
58
84
84
84
84
84
84
84
78
ENDCHAR
STARTCHAR 1ED8
ENCODING 7896
SWIDTH 588 0
DWIDTH 10 0
BBX 8 19 1 -3
BITMAP
18
24
00
3C
42
81
81
81
81
81
81
81
81
81
42
3C
00
00
10
ENDCHAR
STARTCHAR 1ED9
ENCODING 7897
SWIDTH 470 0
DWIDTH 8 0
BBX 6 17 1 -3
BITMAP
20
30
48
00
20
58
84
84
84
84
84
84
84
78
00
00
20
ENDCHAR
STARTCHAR 1EDA
ENCODING 7898
SWIDTH 588 0
DWIDTH 10 0
BBX 8 16 1 0
BITMAP
08
09
01
3F
42
81
81
81
81
81
81
81
81
81
42
3C
ENDCHAR
STARTCHAR 1EDB
ENCODING 7899
SWIDTH 470 0
DWIDTH 8 0
BBX 6 14 1 0
BITMAP
08
10
14
04
24
58
84
84
84
84
84
84
84
78
ENDCHAR
STARTCHAR 1EDC
ENCODING 7900
SWIDTH 588 0
DWIDTH 10 0
BBX 8 16 1 0
BITMAP
30
11
01
3F
42
81
81
81
81
81
81
81
81
81
42
3C
ENDCHAR
STARTCHAR 1EDD
ENCODING 7901
SWIDTH 470 0
DWIDTH 8 0
BBX 6 14 1 0
BITMAP
40
20
24
04
24
58
84
84
84
84
84
84
84
78
ENDCHAR
STARTCHAR 1EDE
ENCODING 7902
SWIDTH 588 0
DWIDTH 10 0
BBX 8 16 1 0
BITMAP
3C
09
01
3F
42
81
81
81
81
81
81
81
81
81
42
3C
ENDCHAR
STARTCHAR 1EDF
ENCODING 7903
SWIDTH 470 0
DWIDTH 8 0
BBX 6 14 1 0
BITMAP
30
08
14
04
24
58
84
84
84
84
84
84
84
78
ENDCHAR
STARTCHAR 1EE0
ENCODING 7904
SWIDTH 588 0
DWIDTH 10 0
BBX 8 16 1 0
BITMAP
32
4D
01
3F
42
81
81
81
81
81
81
81
81
81
42
3C
ENDCHAR
STARTCHAR 1EE1
ENCODING 7905
SWIDTH 470 0
DWIDTH 8 0
BBX 6 13 1 0
BITMAP
78
04
04
24
58
84
84
84
84
84
84
84
78
ENDCHAR
STARTCHAR 1EE2
ENCODING 7906
SWIDTH 588 0
DWIDTH 10 0
BBX 8 18 1 -3
BITMAP
01
01
3F
42
81
81
81
81
81
81
81
81
81
42
3C
00
00
10
ENDCHAR
STARTCHAR 1EE3
ENCODING 7907
SWIDTH 470 0
DWIDTH 8 0
BBX 6 15 1 -3
BITMAP
04
04
24
58
84
84
84
84
84
84
84
78
00
00
20
ENDCHAR
STARTCHAR 1EE4
ENCODING 7908
SWIDTH 588 0
DWIDTH 10 0
BBX 8 16 1 -3
BITMAP
81
81
81
81
81
81
81
81
81
81
81
41
3E
00
00
08
ENDCHAR
STARTCHAR 1EE5
ENCODING 7909
SWIDTH 470 0
DWIDTH 8 0
BBX 6 12 1 -3
BITMAP
84
84
84
84
84
84
84
84
7C
00
00
20
ENDCHAR
STARTCHAR 1EE6
ENCODING 7910
SWIDTH 588 0
DWIDTH 10 0
BBX 8 16 1 0
BITMAP
1C
08
00
81
81
81
81
81
81
81
81
81
81
81
41
3E
ENDCHAR
STARTCHAR 1EE7
ENCODING 7911
SWIDTH 470 0
DWIDTH 8 0
BBX 6 14 1 0
BITMAP
30
08
10
00
00
84
84
84
84
84
84
84
84
7C
ENDCHAR
STARTCHAR 1EE8
ENCODING 7912
SWIDTH 588 0
DWIDTH 10 0
BBX 10 16 1 0
BITMAP
0C00
0840
0040
8180
8100
8100
8100
8100
8100
8100
8100
8100
8100
8100
4100
3E00
ENDCHAR
STARTCHAR 1EE9
ENCODING 7913
SWIDTH 470 0
DWIDTH 8 0
BBX 7 14 1 0
BITMAP
08
10
12
02
02
84
84
84
84
84
84
84
84
7C
ENDCHAR
STARTCHAR 1EEA
ENCODING 7914
SWIDTH 588 0
DWIDTH 10 0
BBX 10 16 1 0
BITMAP
1000
1040
0040
8180
8100
8100
8100
8100
8100
8100
8100
8100
8100
8100
4100
3E00
ENDCHAR
STARTCHAR 1EEB
ENCODING 7915
SWIDTH 470 0
DWIDTH 8 0
BBX 7 14 1 0
BITMAP
40
20
22
02
02
84
84
84
84
84
84
84
84
7C
ENDCHAR
STARTCHAR 1EEC
ENCODING 7916
SWIDTH 588 0
DWIDTH 10 0
BBX 10 16 1 0
BITMAP
1C00
0840
0040
8180
8100
8100
8100
8100
8100
8100
8100
8100
8100
8100
4100
3E00
ENDCHAR
STARTCHAR 1EED
ENCODING 7917
SWIDTH 470 0
DWIDTH 8 0
BBX 7 14 1 0
BITMAP
30
08
12
02
02
84
84
84
84
84
84
84
84
7C
ENDCHAR
STARTCHAR 1EEE
ENCODING 7918
SWIDTH 588 0
DWIDTH 10 0
BBX 10 16 1 0
BITMAP
3200
4C40
0040
8180
8100
8100
8100
8100
8100
8100
8100
8100
8100
8100
4100
3E00
ENDCHAR
STARTCHAR 1EEF
ENCODING 7919
SWIDTH 470 0
DWIDTH 8 0
BBX 7 13 1 0
BITMAP
78
02
02
02
84
84
84
84
84
84
84
84
7C
ENDCHAR
STARTCHAR 1EF0
ENCODING 7920
SWIDTH 588 0
DWIDTH 10 0
BBX 10 18 1 -3
BITMAP
0040
0040
8180
8100
8100
8100
8100
8100
8100
8100
8100
8100
8100
4100
3E00
0000
0000
0800
ENDCHAR
STARTCHAR 1EF1
ENCODING 7921
SWIDTH 470 0
DWIDTH 8 0
BBX 7 15 1 -3
BITMAP
02
02
02
84
84
84
84
84
84
84
84
7C
00
00
20
ENDCHAR
STARTCHAR 1EF2
ENCODING 7922
SWIDTH 470 0
DWIDTH 8 0
BBX 8 16 0 0
BITMAP
10
10
00
81
81
42
42
24
14
18
08
08
08
08
08
08
ENDCHAR
STARTCHAR 1EF3
ENCODING 7923
SWIDTH 411 0
DWIDTH 7 0
BBX 7 18 0 -4
BITMAP
20
20
10
00
00
82
82
44
44
24
28
28
18
10
10
10
20
20
ENDCHAR
STARTCHAR 1EF4
ENCODING 7924
SWIDTH 470 0
DWIDTH 8 0
BBX 8 16 0 -3
BITMAP
81
81
42
42
24
14
18
08
08
08
08
08
08
00
00
08
ENDCHAR
STARTCHAR 1EF5
ENCODING 7925
SWIDTH 411 0
DWIDTH 7 0
BBX 7 13 0 -4
BITMAP
82
82
44
44
24
28
28
18
10
10
10
24
20
ENDCHAR
STARTCHAR 1EF6
ENCODING 7926
SWIDTH 470 0
DWIDTH 8 0
BBX 8 16 0 0
BITMAP
1C
08
00
81
81
42
42
24
14
18
08
08
08
08
08
08
ENDCHAR
STARTCHAR 1EF7
ENCODING 7927
SWIDTH 411 0
DWIDTH 7 0
BBX 7 18 0 -4
BITMAP
38
08
10
00
00
82
82
44
44
24
28
28
18
10
10
10
20
20
ENDCHAR
STARTCHAR 1EF8
ENCODING 7928
SWIDTH 470 0
DWIDTH 8 0
BBX 8 16 0 0
BITMAP
32
4C
00
81
81
42
42
24
14
18
08
08
08
08
08
08
ENDCHAR
STARTCHAR 1EF9
ENCODING 7929
SWIDTH 411 0
DWIDTH 7 0
BBX 7 17 0 -4
BITMAP
34
08
00
00
82
82
44
44
24
28
28
18
10
10
10
20
20
ENDCHAR
STARTCHAR 2007
ENCODING 8199
SWIDTH 529 0
DWIDTH 9 0
BBX 0 0 0 0
BITMAP
ENDCHAR
STARTCHAR 2008
ENCODING 8200
SWIDTH 176 0
DWIDTH 3 0
BBX 0 0 0 0
BITMAP
ENDCHAR
STARTCHAR 2009
ENCODING 8201
SWIDTH 176 0
DWIDTH 3 0
BBX 0 0 0 0
BITMAP
ENDCHAR
STARTCHAR 200A
ENCODING 8202
SWIDTH 58 0
DWIDTH 1 0
BBX 0 0 0 0
BITMAP
ENDCHAR
STARTCHAR 200B
ENCODING 8203
SWIDTH 0 0
DWIDTH 0 0
BBX 0 0 0 0
BITMAP
ENDCHAR
STARTCHAR 2010
ENCODING 8208
SWIDTH 352 0
DWIDTH 6 0
BBX 4 1 1 4
BITMAP
F0
ENDCHAR
STARTCHAR 2012
ENCODING 8210
SWIDTH 529 0
DWIDTH 9 0
BBX 6 1 1 4
BITMAP
FC
ENDCHAR
STARTCHAR 2013
ENCODING 8211
SWIDTH 411 0
DWIDTH 7 0
BBX 7 1 0 4
BITMAP
FE
ENDCHAR
STARTCHAR 2014
ENCODING 8212
SWIDTH 823 0
DWIDTH 14 0
BBX 14 1 0 4
BITMAP
FFFC
ENDCHAR
STARTCHAR 2015
ENCODING 8213
SWIDTH 823 0
DWIDTH 14 0
BBX 14 1 0 4
BITMAP
FFFC
ENDCHAR
STARTCHAR 2018
ENCODING 8216
SWIDTH 176 0
DWIDTH 3 0
BBX 1 4 1 10
BITMAP
80
80
80
80
ENDCHAR
STARTCHAR 2019
ENCODING 8217
SWIDTH 176 0
DWIDTH 3 0
BBX 1 4 1 10
BITMAP
80
80
80
80
ENDCHAR
STARTCHAR 201A
ENCODING 8218
SWIDTH 176 0
DWIDTH 3 0
BBX 1 4 1 -3
BITMAP
80
80
80
80
ENDCHAR
STARTCHAR 201C
ENCODING 8220
SWIDTH 294 0
DWIDTH 5 0
BBX 3 4 1 10
BITMAP
A0
A0
A0
A0
ENDCHAR
STARTCHAR 201D
ENCODING 8221
SWIDTH 294 0
DWIDTH 5 0
BBX 3 4 1 10
BITMAP
A0
A0
A0
A0
ENDCHAR
STARTCHAR 201E
ENCODING 8222
SWIDTH 294 0
DWIDTH 5 0
BBX 3 4 1 -3
BITMAP
A0
A0
A0
A0
ENDCHAR
STARTCHAR 2020
ENCODING 8224
SWIDTH 411 0
DWIDTH 7 0
BBX 6 13 1 1
BITMAP
20
20
20
FC
20
20
20
20
20
20
20
20
20
ENDCHAR
STARTCHAR 2021
ENCODING 8225
SWIDTH 411 0
DWIDTH 7 0
BBX 6 13 1 1
BITMAP
20
20
20
FC
20
20
20
20
20
FC
20
20
20
ENDCHAR
STARTCHAR 2022
ENCODING 8226
SWIDTH 294 0
DWIDTH 5 0
BBX 3 3 1 3
BITMAP
E0
E0
60
ENDCHAR
STARTCHAR 2026
ENCODING 8230
SWIDTH 529 0
DWIDTH 9 0
BBX 7 1 1 0
BITMAP
92
ENDCHAR
STARTCHAR 2030
ENCODING 8240
SWIDTH 1117 0
DWIDTH 19 0
BBX 17 13 1 0
BITMAP
610000
910000
890000
8A0000
8A0000
8AC300
952480
752880
0A1880
0A1880
0A1880
112880
11E700
ENDCHAR
STARTCHAR 2032
ENCODING 8242
SWIDTH 176 0
DWIDTH 3 0
BBX 1 6 1 8
BITMAP
80
80
80
80
80
80
ENDCHAR
STARTCHAR 2033
ENCODING 8243
SWIDTH 294 0
DWIDTH 5 0
BBX 3 6 1 8
BITMAP
A0
A0
A0
A0
A0
A0
ENDCHAR
STARTCHAR 2039
ENCODING 8249
SWIDTH 235 0
DWIDTH 4 0
BBX 2 7 1 1
BITMAP
40
80
80
80
80
40
40
ENDCHAR
STARTCHAR 203A
ENCODING 8250
SWIDTH 235 0
DWIDTH 4 0
BBX 2 7 1 1
BITMAP
80
80
40
40
80
80
80
ENDCHAR
STARTCHAR 2044
ENCODING 8260
SWIDTH 117 0
DWIDTH 2 0
BBX 7 15 -3 -1
BITMAP
02
02
04
04
04
08
08
10
10
10
20
20
40
40
80
ENDCHAR
STARTCHAR 2070
ENCODING 8304
SWIDTH 352 0
DWIDTH 6 0
BBX 4 9 1 5
BITMAP
60
90
90
90
90
90
90
90
60
ENDCHAR
STARTCHAR 2074
ENCODING 8308
SWIDTH 352 0
DWIDTH 6 0
BBX 6 9 0 5
BITMAP
10
20
20
48
48
88
FC
08
08
ENDCHAR
STARTCHAR 2075
ENCODING 8309
SWIDTH 352 0
DWIDTH 6 0
BBX 4 9 1 5
BITMAP
F0
80
80
80
60
10
10
10
E0
ENDCHAR
STARTCHAR 2076
ENCODING 8310
SWIDTH 352 0
DWIDTH 6 0
BBX 4 9 1 5
BITMAP
70
80
80
80
F0
90
90
90
60
ENDCHAR
STARTCHAR 2077
ENCODING 8311
SWIDTH 352 0
DWIDTH 6 0
BBX 5 9 0 5
BITMAP
F8
08
08
10
10
20
20
20
40
ENDCHAR
STARTCHAR 2078
ENCODING 8312
SWIDTH 352 0
DWIDTH 6 0
BBX 4 9 1 5
BITMAP
60
90
90
90
60
90
90
90
E0
ENDCHAR
STARTCHAR 2079
ENCODING 8313
SWIDTH 352 0
DWIDTH 6 0
BBX 5 9 0 5
BITMAP
70
88
88
88
78
08
08
08
70
ENDCHAR
STARTCHAR 2080
ENCODING 8320
SWIDTH 352 0
DWIDTH 6 0
BBX 4 8 1 -1
BITMAP
F0
90
90
90
90
90
90
F0
ENDCHAR
STARTCHAR 2081
ENCODING 8321
SWIDTH 352 0
DWIDTH 6 0
BBX 4 8 1 -1
BITMAP
60
A0
20
20
20
20
20
F0
ENDCHAR
STARTCHAR 2082
ENCODING 8322
SWIDTH 352 0
DWIDTH 6 0
BBX 4 8 1 -1
BITMAP
F0
10
10
20
20
40
80
F0
ENDCHAR
STARTCHAR 2083
ENCODING 8323
SWIDTH 352 0
DWIDTH 6 0
BBX 4 8 1 -1
BITMAP
F0
10
10
60
10
10
10
F0
ENDCHAR
STARTCHAR 2084
ENCODING 8324
SWIDTH 352 0
DWIDTH 6 0
BBX 6 8 0 -1
BITMAP
10
20
20
48
48
FC
08
08
ENDCHAR
STARTCHAR 2085
ENCODING 8325
SWIDTH 352 0
DWIDTH 6 0
BBX 4 8 1 -1
BITMAP
F0
80
80
E0
10
10
10
F0
ENDCHAR
STARTCHAR 2086
ENCODING 8326
SWIDTH 352 0
DWIDTH 6 0
BBX 4 8 1 -1
BITMAP
70
80
80
E0
90
90
90
F0
ENDCHAR
STARTCHAR 2087
ENCODING 8327
SWIDTH 352 0
DWIDTH 6 0
BBX 5 8 0 -1
BITMAP
F8
08
10
10
10
20
20
40
ENDCHAR
STARTCHAR 2088
ENCODING 8328
SWIDTH 352 0
DWIDTH 6 0
BBX 4 8 1 -1
BITMAP
F0
90
90
60
90
90
90
F0
ENDCHAR
STARTCHAR 2089
ENCODING 8329
SWIDTH 352 0
DWIDTH 6 0
BBX 5 8 0 -1
BITMAP
70
88
88
48
38
08
08
F0
ENDCHAR
STARTCHAR 20A1
ENCODING 8353
SWIDTH 470 0
DWIDTH 8 0
BBX 7 17 1 -2
BITMAP
0A
0A
3E
40
80
80
80
80
80
80
80
80
80
40
BE
A0
A0
ENDCHAR
STARTCHAR 20A3
ENCODING 8355
SWIDTH 529 0
DWIDTH 9 0
BBX 8 13 1 0
BITMAP
7F
40
40
40
40
40
7E
40
40
F0
40
40
40
ENDCHAR
STARTCHAR 20A4
ENCODING 8356
SWIDTH 529 0
DWIDTH 9 0
BBX 7 13 1 0
BITMAP
1E
20
40
40
40
FC
40
40
FC
40
40
40
FE
ENDCHAR
STARTCHAR 20A6
ENCODING 8358
SWIDTH 764 0
DWIDTH 13 0
BBX 11 13 1 0
BITMAP
4080
6080
6080
5080
4880
C8E0
4480
4480
C2E0
4280
4180
4080
4080
ENDCHAR
STARTCHAR 20A7
ENCODING 8359
SWIDTH 1117 0
DWIDTH 19 0
BBX 17 13 1 0
BITMAP
F88000
848000
828000
828100
83F680
828800
828800
848800
F88700
808080
808080
808080
807F00
ENDCHAR
STARTCHAR 20A9
ENCODING 8361
SWIDTH 941 0
DWIDTH 16 0
BBX 14 13 1 0
BITMAP
8204
8304
8304
8308
4488
C48C
4488
4490
A85C
2850
2850
1060
1020
ENDCHAR
STARTCHAR 20AB
ENCODING 8363
SWIDTH 470 0
DWIDTH 8 0
BBX 7 16 1 -2
BITMAP
04
04
3E
04
14
6C
84
84
84
84
84
84
84
7C
00
FC
ENDCHAR
STARTCHAR 20AC
ENCODING 8364
SWIDTH 529 0
DWIDTH 9 0
BBX 8 13 1 0
BITMAP
1F
20
40
40
40
FE
40
40
FE
40
40
20
1F
ENDCHAR
STARTCHAR 20AD
ENCODING 8365
SWIDTH 588 0
DWIDTH 10 0
BBX 9 13 1 0
BITMAP
4080
4100
4200
4200
4400
4800
FF00
4800
4400
4200
4200
4100
4080
ENDCHAR
STARTCHAR 20B1
ENCODING 8369
SWIDTH 647 0
DWIDTH 11 0
BBX 9 13 1 0
BITMAP
3C00
4200
C180
4100
4100
C180
4100
4200
7C00
4000
4000
4000
4000
ENDCHAR
STARTCHAR 20B2
ENCODING 8370
SWIDTH 529 0
DWIDTH 9 0
BBX 7 17 1 -2
BITMAP
08
08
1E
60
80
80
80
80
80
82
82
82
82
42
36
08
08
ENDCHAR
STARTCHAR 20B5
ENCODING 8373
SWIDTH 470 0
DWIDTH 8 0
BBX 7 17 1 -2
BITMAP
08
08
3E
40
80
80
80
80
80
80
80
80
80
40
36
08
08
ENDCHAR
STARTCHAR 20B9
ENCODING 8377
SWIDTH 529 0
DWIDTH 9 0
BBX 7 13 1 0
BITMAP
FE
08
04
FE
04
04
18
E0
10
08
08
04
02
ENDCHAR
STARTCHAR 20BA
ENCODING 8378
SWIDTH 529 0
DWIDTH 9 0
BBX 7 13 1 0
BITMAP
40
40
4C
70
C0
4C
70
C0
40
40
40
40
3E
ENDCHAR
STARTCHAR 20BC
ENCODING 8380
SWIDTH 588 0
DWIDTH 10 0
BBX 8 15 1 0
BITMAP
08
08
3C
4A
4A
49
89
89
89
89
81
81
81
81
81
ENDCHAR
STARTCHAR 20BD
ENCODING 8381
SWIDTH 588 0
DWIDTH 10 0
BBX 8 13 1 0
BITMAP
3C
42
41
41
41
41
46
F8
40
40
F8
40
40
ENDCHAR
STARTCHAR 20BF
ENCODING 8383
SWIDTH 529 0
DWIDTH 9 0
BBX 8 17 1 -2
BITMAP
28
28
7C
82
82
82
82
82
FC
82
81
81
81
82
DC
28
28
ENDCHAR
STARTCHAR 2113
ENCODING 8467
SWIDTH 294 0
DWIDTH 5 0
BBX 5 13 0 0
BITMAP
30
48
48
48
50
50
20
40
C0
C0
40
40
38
ENDCHAR
STARTCHAR 2116
ENCODING 8470
SWIDTH 1000 0
DWIDTH 17 0
BBX 16 13 1 0
BITMAP
810C
C112
C121
A121
9121
9121
8922
891C
8500
8500
8300
8100
8100
ENDCHAR
STARTCHAR 2120
ENCODING 8480
SWIDTH 823 0
DWIDTH 14 0
BBX 12 9 1 4
BITMAP
7410
8410
8630
8630
6550
1550
1550
1490
E410
ENDCHAR
STARTCHAR 2122
ENCODING 8482
SWIDTH 882 0
DWIDTH 15 0
BBX 13 9 0 4
BITMAP
FE08
2308
2308
2298
2298
22A8
2268
2248
2208
ENDCHAR
STARTCHAR 2126
ENCODING 8486
SWIDTH 588 0
DWIDTH 10 0
BBX 8 13 1 0
BITMAP
3C
42
81
81
81
81
81
81
81
81
42
42
E7
ENDCHAR
STARTCHAR 212E
ENCODING 8494
SWIDTH 823 0
DWIDTH 14 0
BBX 12 13 1 0
BITMAP
0F00
3080
4040
4060
C060
C070
FFF0
C000
C000
C000
4020
2040
1F80
ENDCHAR
STARTCHAR 2153
ENCODING 8531
SWIDTH 764 0
DWIDTH 13 0
BBX 11 15 1 -1
BITMAP
2080
E080
2100
2100
2200
2200
23C0
2420
F420
0820
08C0
0820
1020
1020
21E0
ENDCHAR
STARTCHAR 2154
ENCODING 8532
SWIDTH 764 0
DWIDTH 13 0
BBX 11 15 1 -1
BITMAP
E080
1080
1100
1100
2200
4200
43C0
8420
F420
0820
08C0
0820
1020
1020
21E0
ENDCHAR
STARTCHAR 215B
ENCODING 8539
SWIDTH 764 0
DWIDTH 13 0
BBX 12 15 1 -1
BITMAP
2080
E080
2100
2100
2200
2200
22C0
2520
F510
0920
08E0
0920
1110
1110
21E0
ENDCHAR
STARTCHAR 215C
ENCODING 8540
SWIDTH 764 0
DWIDTH 13 0
BBX 12 15 1 -1
BITMAP
E080
1080
1100
1100
6200
1200
12C0
1520
E510
0920
08E0
0920
1110
1110
21E0
ENDCHAR
STARTCHAR 215D
ENCODING 8541
SWIDTH 764 0
DWIDTH 13 0
BBX 12 15 1 -1
BITMAP
F080
8080
8100
8100
6200
1200
12C0
1520
E510
0920
08E0
0920
1110
1110
21E0
ENDCHAR
STARTCHAR 215E
ENCODING 8542
SWIDTH 764 0
DWIDTH 13 0
BBX 13 15 0 -1
BITMAP
F840
0840
0880
1080
1100
2100
2160
2290
4288
0490
0470
0490
0888
0888
10F0
ENDCHAR
STARTCHAR 2190
ENCODING 8592
SWIDTH 647 0
DWIDTH 11 0
BBX 9 9 1 2
BITMAP
0800
1000
2000
4000
FF80
4000
2000
1000
0800
ENDCHAR
STARTCHAR 2191
ENCODING 8593
SWIDTH 647 0
DWIDTH 11 0
BBX 8 9 1 2
BITMAP
08
1C
2A
49
89
08
08
08
08
ENDCHAR
STARTCHAR 2192
ENCODING 8594
SWIDTH 647 0
DWIDTH 11 0
BBX 9 9 1 2
BITMAP
0800
0400
0200
0100
FF80
0100
0200
0400
0800
ENDCHAR
STARTCHAR 2193
ENCODING 8595
SWIDTH 647 0
DWIDTH 11 0
BBX 8 9 1 2
BITMAP
08
08
08
08
89
49
2A
1C
08
ENDCHAR
STARTCHAR 2202
ENCODING 8706
SWIDTH 470 0
DWIDTH 8 0
BBX 7 13 0 0
BITMAP
78
04
04
02
02
3E
42
82
82
82
82
44
38
ENDCHAR
STARTCHAR 2206
ENCODING 8710
SWIDTH 588 0
DWIDTH 10 0
BBX 9 13 0 0
BITMAP
0800
0C00
0C00
1400
1200
1200
2200
2100
2100
4100
4080
4080
FF80
ENDCHAR
STARTCHAR 220F
ENCODING 8719
SWIDTH 588 0
DWIDTH 10 0
BBX 7 17 1 -4
BITMAP
FE
82
82
82
82
82
82
82
82
82
82
82
82
82
82
82
82
ENDCHAR
STARTCHAR 2211
ENCODING 8721
SWIDTH 470 0
DWIDTH 8 0
BBX 7 17 0 -4
BITMAP
FE
40
40
20
20
10
10
08
08
08
10
10
20
20
40
40
FE
ENDCHAR
STARTCHAR 2212
ENCODING 8722
SWIDTH 529 0
DWIDTH 9 0
BBX 6 1 1 6
BITMAP
FC
ENDCHAR
STARTCHAR 2215
ENCODING 8725
SWIDTH 235 0
DWIDTH 4 0
BBX 3 13 0 0
BITMAP
20
20
20
20
20
20
40
40
40
40
40
80
80
ENDCHAR
STARTCHAR 2219
ENCODING 8729
SWIDTH 176 0
DWIDTH 3 0
BBX 1 1 1 6
BITMAP
80
ENDCHAR
STARTCHAR 221A
ENCODING 8730
SWIDTH 647 0
DWIDTH 11 0
BBX 9 13 1 0
BITMAP
0080
0080
0080
0080
E100
2100
1100
1200
1200
1200
0A00
0C00
0400
ENDCHAR
STARTCHAR 221E
ENCODING 8734
SWIDTH 823 0
DWIDTH 14 0
BBX 12 5 1 4
BITMAP
71E0
8A10
8410
8610
F9E0
ENDCHAR
STARTCHAR 222B
ENCODING 8747
SWIDTH 235 0
DWIDTH 4 0
BBX 4 17 0 -4
BITMAP
30
40
40
40
40
40
40
20
20
20
20
20
20
20
20
20
C0
ENDCHAR
STARTCHAR 2248
ENCODING 8776
SWIDTH 529 0
DWIDTH 9 0
BBX 6 5 1 4
BITMAP
64
9C
00
64
9C
ENDCHAR
STARTCHAR 2260
ENCODING 8800
SWIDTH 529 0
DWIDTH 9 0
BBX 6 6 1 3
BITMAP
F4
08
10
20
DC
80
ENDCHAR
STARTCHAR 2264
ENCODING 8804
SWIDTH 529 0
DWIDTH 9 0
BBX 6 9 1 0
BITMAP
0C
30
C0
70
08
04
00
00
FC
ENDCHAR
STARTCHAR 2265
ENCODING 8805
SWIDTH 529 0
DWIDTH 9 0
BBX 6 9 1 0
BITMAP
E0
18
04
18
60
80
00
00
FC
ENDCHAR
STARTCHAR 25CA
ENCODING 9674
SWIDTH 529 0
DWIDTH 9 0
BBX 7 13 1 0
BITMAP
10
30
28
48
44
84
86
84
44
48
28
28
10
ENDCHAR
STARTCHAR FB01
ENCODING 64257
SWIDTH 470 0
DWIDTH 8 0
BBX 7 14 0 0
BITMAP
18
22
20
20
20
FA
22
22
22
22
22
22
22
22
ENDCHAR
STARTCHAR FB02
ENCODING 64258
SWIDTH 470 0
DWIDTH 8 0
BBX 7 14 0 0
BITMAP
1A
22
22
22
22
FA
22
22
22
22
22
22
22
22
ENDCHAR
ENDFONT
